<svg id="Capa_1" enable-background="new 0 0 499.974 499.974" height="512" viewBox="0 0 499.974 499.974" width="512" xmlns="http://www.w3.org/2000/svg"><g><path d="m459.687 67.861-60.109-60.108c-5-4.999-11.647-7.753-18.719-7.753h-194.261c-14.597 0-26.472 11.875-26.472 26.472v58.293h-101.12c-14.597 0-26.472 11.875-26.472 26.472v169.736c0 12.858 20 12.84 20 0v-169.737c0-3.568 2.903-6.472 6.472-6.472h190.02v44.703c0 14.597 11.876 26.472 26.473 26.472h44.351v297.563c0 3.568-2.903 6.472-6.472 6.472h-254.372c-3.568 0-6.472-2.903-6.472-6.472v-110.658c0-12.858-20-12.84-20 0v110.658c0 14.597 11.875 26.472 26.472 26.472h254.371c14.597 0 26.472-11.875 26.472-26.472v-58.293h101.119c14.597 0 26.472-11.875 26.472-26.472v-302.157c-.001-7.071-2.754-13.719-7.753-18.719zm-24.971 3.315h-31.627c-3.568 0-6.472-2.903-6.472-6.473v-31.626zm-165.691 78.292v-31.627l38.098 38.098h-31.625c-3.569 0-6.473-2.903-6.473-6.471zm171.943 245.741h-101.119v-223.864c0-7.072-2.754-13.72-7.754-18.719l-60.107-60.108c-5-4.999-11.647-7.753-18.719-7.753h-73.143v-58.293c0-3.568 2.903-6.472 6.472-6.472h190.02v44.703c0 14.597 11.875 26.473 26.472 26.473h44.351v297.562c-.002 3.568-2.905 6.471-6.473 6.471z"/><path d="m99.411 213.327h69.067c12.84 0 12.858-20 0-20h-69.067c-12.84 0-12.858 20 0 20z"/><path d="m99.411 255.219h172.466c12.84 0 12.858-20 0-20h-172.466c-12.84 0-12.858 20 0 20z"/><path d="m99.411 299.717h172.466c12.84 0 12.858-20 0-20h-172.466c-12.84 0-12.858 20 0 20z"/><path d="m99.411 342.911h172.466c12.84 0 12.858-20 0-20h-172.466c-12.84 0-12.858 20 0 20z"/><path d="m99.411 386.105h172.466c12.84 0 12.858-20 0-20h-172.466c-12.84 0-12.858 20 0 20z"/><path d="m42.533 331.718c4.902 0 9.15-3.701 9.887-8.533 1.403-9.198-10.063-15.099-16.779-8.705-6.397 6.089-1.947 17.238 6.892 17.238z"/></g></svg>