<svg xmlns="http://www.w3.org/2000/svg" width="512" height="512" viewBox="0 0 499.974 499.974"><path d="M459.687 67.861 399.578 7.753C394.578 2.754 387.931 0 380.859 0H186.598c-14.597 0-26.472 11.875-26.472 26.472v58.293H59.006c-14.597 0-26.472 11.875-26.472 26.472v169.736c0 12.858 20 12.84 20 0V111.236a6.48 6.48 0 0 1 6.472-6.472h190.02v44.703c0 14.597 11.876 26.472 26.473 26.472h44.351v297.563a6.48 6.48 0 0 1-6.472 6.472H59.006a6.48 6.48 0 0 1-6.472-6.472V362.844c0-12.858-20-12.84-20 0v110.658c0 14.597 11.875 26.472 26.472 26.472h254.371c14.597 0 26.472-11.875 26.472-26.472v-58.293h101.119c14.597 0 26.472-11.875 26.472-26.472V86.58c-.001-7.071-2.754-13.719-7.753-18.719zm-24.971 3.315h-31.627a6.48 6.48 0 0 1-6.472-6.473V33.077zm-165.691 78.292v-31.627l38.098 38.098h-31.625a6.48 6.48 0 0 1-6.473-6.471zm171.943 245.741H339.849V171.345c0-7.072-2.754-13.72-7.754-18.719l-60.107-60.108c-5-4.999-11.647-7.753-18.719-7.753h-73.143V26.472A6.48 6.48 0 0 1 186.598 20h190.02v44.703c0 14.597 11.875 26.473 26.472 26.473h44.351v297.562a6.481 6.481 0 0 1-6.473 6.471z"/><path d="M99.411 213.327h69.067c12.84 0 12.858-20 0-20H99.411c-12.84 0-12.858 20 0 20zm0 41.892h172.466c12.84 0 12.858-20 0-20H99.411c-12.84 0-12.858 20 0 20zm0 44.498h172.466c12.84 0 12.858-20 0-20H99.411c-12.84 0-12.858 20 0 20zm0 43.194h172.466c12.84 0 12.858-20 0-20H99.411c-12.84 0-12.858 20 0 20zm0 43.194h172.466c12.84 0 12.858-20 0-20H99.411c-12.84 0-12.858 20 0 20zm-56.878-54.387c4.902 0 9.15-3.701 9.887-8.533 1.403-9.198-10.063-15.099-16.779-8.705-6.397 6.089-1.947 17.238 6.892 17.238z"/></svg>