<svg xmlns="http://www.w3.org/2000/svg" xml:space="preserve" style="enable-background:new 0 0 512 512" viewBox="0 0 512 512"><path d="M262.785 317.207a8.084 8.084 0 0 0-10.769-3.837 128.725 128.725 0 0 1-20.448 7.648 8.08 8.08 0 0 0-5.748 6.2l-8.552 42.758a9.088 9.088 0 0 1-8.888 7.287h-23.329a9.088 9.088 0 0 1-8.888-7.287l-8.552-42.758a8.084 8.084 0 0 0-5.748-6.2 128.448 128.448 0 0 1-28.391-11.764 8.086 8.086 0 0 0-8.452.317l-36.286 24.19c-3.582 2.388-8.392 1.911-11.438-1.133L60.8 316.131c-3.045-3.045-3.52-7.855-1.133-11.438l24.19-36.286a8.081 8.081 0 0 0 .317-8.452 128.411 128.411 0 0 1-11.764-28.391 8.08 8.08 0 0 0-6.2-5.748l-42.758-8.552a9.088 9.088 0 0 1-7.287-8.888v-23.329a9.088 9.088 0 0 1 7.287-8.888l42.758-8.552a8.084 8.084 0 0 0 6.2-5.748 128.448 128.448 0 0 1 11.764-28.391 8.086 8.086 0 0 0-.317-8.452L59.669 88.734a9.09 9.09 0 0 1 1.133-11.438L77.298 60.8c3.045-3.045 7.856-3.52 11.438-1.133l36.286 24.19a8.083 8.083 0 0 0 8.452.317 128.448 128.448 0 0 1 28.391-11.764 8.08 8.08 0 0 0 5.748-6.2l8.552-42.758a9.088 9.088 0 0 1 8.888-7.287h23.329a9.088 9.088 0 0 1 8.888 7.287l8.552 42.758a8.084 8.084 0 0 0 5.748 6.2 128.448 128.448 0 0 1 28.391 11.764 8.086 8.086 0 0 0 8.452-.317l36.286-24.19c3.582-2.388 8.391-1.911 11.438 1.133l16.496 16.496c3.045 3.045 3.52 7.855 1.133 11.438l-24.19 36.286a8.081 8.081 0 0 0-.317 8.452 128.448 128.448 0 0 1 11.764 28.391 8.08 8.08 0 0 0 6.2 5.748l42.758 8.552a9.088 9.088 0 0 1 7.287 8.888v23.329a9.088 9.088 0 0 1-7.287 8.888l-42.758 8.552a8.084 8.084 0 0 0-6.2 5.75 128.672 128.672 0 0 1-7.88 20.934 8.083 8.083 0 0 0 3.791 10.785 8.082 8.082 0 0 0 10.785-3.791 144.997 144.997 0 0 0 7.442-18.777l37.991-7.598c11.749-2.352 20.279-12.758 20.279-24.744V185.05c0-11.986-8.53-22.391-20.284-24.743l-37.99-7.598a144.66 144.66 0 0 0-9.434-22.769l21.492-32.239c6.648-9.973 5.323-23.363-3.153-31.839l-16.496-16.496c-8.477-8.476-21.867-9.8-31.839-3.153l-32.239 21.492a144.755 144.755 0 0 0-22.769-9.434l-7.598-37.99C230.772 8.53 220.366 0 208.38 0h-23.329c-11.986 0-22.391 8.53-24.743 20.284l-7.598 37.99a144.66 144.66 0 0 0-22.769 9.434L97.704 46.216c-9.972-6.648-23.363-5.324-31.839 3.153L49.369 65.865c-8.475 8.476-9.801 21.865-3.153 31.839l21.492 32.239a144.716 144.716 0 0 0-9.434 22.769l-37.991 7.598C8.53 162.66 0 173.066 0 185.052v23.329c0 11.986 8.53 22.391 20.284 24.743l37.99 7.598a144.644 144.644 0 0 0 9.434 22.769L46.216 295.73c-6.648 9.973-5.323 23.363 3.153 31.839l16.496 16.496c8.476 8.476 21.866 9.8 31.839 3.153l32.239-21.492a144.716 144.716 0 0 0 22.769 9.434l7.598 37.992c2.35 11.75 12.756 20.281 24.742 20.281h23.329c11.986 0 22.391-8.53 24.743-20.284l7.598-37.99a144.831 144.831 0 0 0 18.228-7.18 8.085 8.085 0 0 0 3.835-10.772z"/><path d="M266.739 241.636a8.083 8.083 0 0 0 10.882-3.504c6.52-12.715 9.967-27.036 9.967-41.415 0-50.107-40.765-90.873-90.873-90.873-23.838 0-46.364 9.162-63.43 25.801a8.084 8.084 0 0 0 11.285 11.577c14.029-13.676 32.547-21.209 52.143-21.209 41.192 0 74.705 33.512 74.705 74.705 0 11.994-2.754 23.446-8.185 34.038a8.084 8.084 0 0 0 3.506 10.88zm-145.696-79.511a8.083 8.083 0 0 0-10.274 5.014 90.728 90.728 0 0 0-4.924 29.577c0 50.108 40.766 90.873 90.873 90.873 19.271 0 37.683-5.956 53.247-17.227a8.086 8.086 0 0 0-9.483-13.097c-12.788 9.259-27.921 14.154-43.765 14.154-41.193 0-74.705-33.513-74.705-74.705 0-8.334 1.36-16.517 4.044-24.318a8.08 8.08 0 0 0-5.013-10.271zm375.399 191.191-23.377-4.675a97.791 97.791 0 0 0-5.127-12.373l13.226-19.838c5.099-7.65 4.083-17.92-2.418-24.42l-10.84-10.84c-6.501-6.5-16.771-7.517-24.42-2.418l-19.838 13.226a97.639 97.639 0 0 0-12.373-5.126l-4.675-23.377c-1.803-9.015-9.784-15.558-18.977-15.558h-15.331c-9.192 0-17.174 6.543-18.977 15.558l-4.675 23.377a97.933 97.933 0 0 0-12.373 5.126l-19.838-13.226c-7.65-5.098-17.92-4.083-24.42 2.418l-10.84 10.84c-6.501 6.501-7.517 16.771-2.418 24.42l13.226 19.838a97.706 97.706 0 0 0-6.605 17.177 8.086 8.086 0 0 0 15.571 4.357 81.578 81.578 0 0 1 7.476-18.043 8.086 8.086 0 0 0-.317-8.452l-15.897-23.845a3.194 3.194 0 0 1 .398-4.019l10.84-10.84a3.198 3.198 0 0 1 4.019-.398l23.845 15.897a8.083 8.083 0 0 0 8.452.317 81.598 81.598 0 0 1 18.043-7.476 8.08 8.08 0 0 0 5.748-6.2l5.619-28.097a3.193 3.193 0 0 1 3.123-2.56h15.331a3.195 3.195 0 0 1 3.123 2.56l5.619 28.099a8.084 8.084 0 0 0 5.748 6.2 81.578 81.578 0 0 1 18.043 7.476 8.086 8.086 0 0 0 8.452-.317l23.845-15.897a3.193 3.193 0 0 1 4.019.398l10.84 10.84a3.196 3.196 0 0 1 .398 4.019l-15.897 23.845a8.081 8.081 0 0 0-.317 8.452 81.598 81.598 0 0 1 7.476 18.043 8.08 8.08 0 0 0 6.2 5.748l28.097 5.619a3.193 3.193 0 0 1 2.56 3.123v15.331a3.195 3.195 0 0 1-2.56 3.123l-28.099 5.619a8.084 8.084 0 0 0-6.2 5.748 81.578 81.578 0 0 1-7.476 18.043 8.086 8.086 0 0 0 .317 8.452l15.897 23.845a3.194 3.194 0 0 1-.398 4.019l-10.84 10.84a3.195 3.195 0 0 1-4.019.398l-23.845-15.897a8.086 8.086 0 0 0-8.452-.317 81.598 81.598 0 0 1-18.043 7.476 8.08 8.08 0 0 0-5.748 6.2l-5.619 28.097a3.193 3.193 0 0 1-3.123 2.56H372.29a3.195 3.195 0 0 1-3.123-2.56l-5.619-28.099a8.084 8.084 0 0 0-5.748-6.2 81.578 81.578 0 0 1-18.043-7.476 8.085 8.085 0 0 0-8.452.317L307.46 467.71a3.193 3.193 0 0 1-4.019-.398l-10.84-10.84a3.196 3.196 0 0 1-.398-4.019l15.897-23.845a8.081 8.081 0 0 0 .317-8.452 81.598 81.598 0 0 1-7.476-18.043 8.08 8.08 0 0 0-6.2-5.748l-28.097-5.619a3.193 3.193 0 0 1-2.56-3.123v-15.331a3.195 3.195 0 0 1 2.56-3.123l1.72-.344a8.083 8.083 0 0 0 6.341-9.513c-.876-4.378-5.13-7.213-9.514-6.341l-1.72.344c-9.013 1.804-15.556 9.785-15.556 18.978v15.331c0 9.192 6.543 17.174 15.558 18.977l23.377 4.675a97.933 97.933 0 0 0 5.126 12.373l-13.226 19.838c-5.1 7.65-4.083 17.92 2.418 24.42l10.84 10.84c6.501 6.501 16.771 7.517 24.42 2.418l19.838-13.226a97.639 97.639 0 0 0 12.373 5.126l4.675 23.377C355.119 505.457 363.1 512 372.293 512h15.331c9.192 0 17.174-6.543 18.977-15.558l4.675-23.377a97.791 97.791 0 0 0 12.373-5.127l19.838 13.226c7.65 5.099 17.92 4.083 24.42-2.418l10.84-10.84c6.501-6.501 7.517-16.771 2.418-24.42l-13.226-19.838a97.639 97.639 0 0 0 5.126-12.373l23.377-4.675c9.014-1.803 15.557-9.784 15.557-18.977v-15.331c.001-9.192-6.542-17.173-15.557-18.976z"/><path d="M379.958 350.855c16.048 0 29.103 13.055 29.103 29.103a8.084 8.084 0 0 0 16.168 0c0-24.963-20.309-45.272-45.272-45.272s-45.272 20.309-45.272 45.272 20.309 45.272 45.272 45.272c10.111 0 19.675-3.261 27.659-9.429a8.086 8.086 0 0 0-9.886-12.796c-5.128 3.961-11.274 6.056-17.773 6.056-16.048 0-29.103-13.055-29.103-29.103.001-16.049 13.056-29.103 29.104-29.103zM245.969 196.716c0-27.158-22.096-49.253-49.253-49.253-27.158 0-49.253 22.096-49.253 49.253 0 27.158 22.095 49.253 49.253 49.253s49.253-22.096 49.253-49.253zm-82.338 0c0-18.242 14.843-33.085 33.085-33.085s33.085 14.843 33.085 33.085-14.842 33.085-33.085 33.085c-18.244 0-33.085-14.843-33.085-33.085z"/></svg>