<svg xmlns="http://www.w3.org/2000/svg" width="512" height="512" viewBox="0 0 480 480"><path d="M248 380c17.673 0 32-14.327 32-32s-14.327-32-32-32-32 14.327-32 32c.02 17.665 14.335 31.98 32 32zm0-48a16 16 0 0 1 13.835 8h-27.67A16 16 0 0 1 248 332zm13.835 24c-4.398 7.641-14.157 10.27-21.798 5.872a15.964 15.964 0 0 1-5.872-5.872z"/><path d="M456 4H24C10.752 4.015.015 14.752 0 28v304c.015 13.248 10.752 23.985 24 24h96.257C124.4 422.866 180.108 476 248 476s123.6-53.134 127.743-120H456c13.248-.015 23.985-10.752 24-24V28c-.015-13.248-10.752-23.985-24-24zM120 244a21.854 21.854 0 0 1-9.75 18.219l-10.688 7.125 8.876 13.312 10.687-7.125c.3-.2.583-.416.875-.623V276a36.768 36.768 0 0 1-16.406 30.656l-4.032 2.687 8.876 13.314 4.031-2.688a53.182 53.182 0 0 0 7.531-6.085V340H88V236h32zm-8-24v-18.158c7.653-4.418 10.275-14.204 5.856-21.856-4.418-7.653-14.204-10.275-21.856-5.856s-10.275 14.204-5.856 21.856A15.998 15.998 0 0 0 96 201.842V220H84.529l-19.064-31.775L104 130.422l38.535 57.8L123.471 220zm136 240c-58.723-.072-107.447-45.432-111.711-104h48.226c.037.293.067.586.108.878l-17.9 10.337a8 8 0 0 0-2.927 10.929l16 27.712a8 8 0 0 0 10.928 2.929l17.917-10.345a64.447 64.447 0 0 0 15.36 8.888V428a8 8 0 0 0 8 8h32a8 8 0 0 0 8-8v-20.672a64.459 64.459 0 0 0 15.365-8.888l17.917 10.345a8 8 0 0 0 10.928-2.929l16-27.712a7.999 7.999 0 0 0-2.927-10.928h-.001l-17.9-10.337c.041-.292.071-.585.108-.878h48.226C355.451 414.57 306.725 459.931 248 460zm-46.688-100.872a47.857 47.857 0 0 1 0-22.256 8 8 0 0 0-3.785-8.775l-15.881-9.169 8-13.856 15.892 9.175a7.999 7.999 0 0 0 9.5-1.116A48.172 48.172 0 0 1 234.283 302a8 8 0 0 0 5.717-7.668V276h16v18.332a8 8 0 0 0 5.717 7.668 48.16 48.16 0 0 1 19.248 11.131 7.999 7.999 0 0 0 9.5 1.116l15.892-9.175 8 13.856-15.884 9.172a8 8 0 0 0-3.785 8.775 47.857 47.857 0 0 1 0 22.256 8 8 0 0 0 3.785 8.775l15.881 9.169-8 13.856-15.892-9.175a7.999 7.999 0 0 0-9.5 1.116A48.166 48.166 0 0 1 261.717 394a8 8 0 0 0-5.717 7.668V420h-16v-18.332a8 8 0 0 0-5.717-7.668 48.16 48.16 0 0 1-19.248-11.131 7.999 7.999 0 0 0-9.5-1.116l-15.892 9.175-8-13.856 15.881-9.169a8 8 0 0 0 3.788-8.775zM464 332a8.01 8.01 0 0 1-8 8h-80.257a127.744 127.744 0 0 0-2.009-16H432c8.832-.01 15.99-7.168 16-16v-64h-16v64h-62.408c-16.214-49.034-60.248-83.567-111.734-87.624l2.58-1.72a8 8 0 0 0-8.876-13.312l-24 16a8 8 0 0 0 0 13.312l24 16a8.001 8.001 0 0 0 8.876-13.312l-1.169-.779c54.137 5.552 96.481 49.158 100.442 103.435h-48.226c-.037-.293-.067-.586-.108-.878l17.9-10.337a8 8 0 0 0 2.928-10.928v-.001l-16-27.712a8 8 0 0 0-10.928-2.929l-17.912 10.345A64.459 64.459 0 0 0 272 288.672V268a8 8 0 0 0-8-8h-32a8 8 0 0 0-8 8v20.672a64.459 64.459 0 0 0-15.365 8.888l-17.917-10.345a8 8 0 0 0-10.928 2.929l-16 27.712a7.999 7.999 0 0 0 2.927 10.928h.001l17.905 10.337c-.041.292-.071.585-.108.878H136V230.216l22.86-38.1a8 8 0 0 0-.2-8.554l-48-72a8 8 0 0 0-13.312 0l-48 72a8 8 0 0 0-.2 8.554L72 230.216V340H24a8.01 8.01 0 0 1-8-8V68h448zm0-280H16V28a8.01 8.01 0 0 1 8-8h432a8.01 8.01 0 0 1 8 8z"/><path d="M32 28h16v16H32zm32 0h16v16H64zm32 0h16v16H96zm123.562 102.656 24 16 8.876-13.312-15.881-10.587 17.1-17.1-11.314-11.314-24 24a8 8 0 0 0 1.219 12.313zm104 2.688 8.876 13.312 24-16a8 8 0 0 0 1.219-12.313l-24-24-11.314 11.314 17.1 17.1zm-58.146 10.266 32.017-47.998 13.312 8.88-32.017 47.998zM184 236h24v-16h-16V100h16V84h-24a8 8 0 0 0-8 8v136a8 8 0 0 0 8 8zm216-8V92a8 8 0 0 0-8-8h-24v16h16v120h-16v16h24a8 8 0 0 0 8-8zm32-16h16v16h-16zm-216-48h16v16h-16zm32 0h80v16h-80zm96 0h16v16h-16zm-64 32h80v16h-80z"/></svg>