<svg id="Capa_1" enable-background="new 0 0 480 480" height="512" viewBox="0 0 480 480" width="512" xmlns="http://www.w3.org/2000/svg"><path d="m248 380c17.673 0 32-14.327 32-32s-14.327-32-32-32-32 14.327-32 32c.02 17.665 14.335 31.98 32 32zm0-48c5.709.008 10.981 3.056 13.835 8h-27.67c2.854-4.944 8.126-7.992 13.835-8zm13.835 24c-4.398 7.641-14.157 10.27-21.798 5.872-2.441-1.405-4.467-3.431-5.872-5.872z"/><path d="m456 4h-432c-13.248.015-23.985 10.752-24 24v304c.015 13.248 10.752 23.985 24 24h96.257c4.143 66.866 59.851 120 127.743 120s123.6-53.134 127.743-120h80.257c13.248-.015 23.985-10.752 24-24v-304c-.015-13.248-10.752-23.985-24-24zm-336 240c.008 7.323-3.653 14.163-9.75 18.219l-10.688 7.125 8.876 13.312 10.687-7.125c.3-.2.583-.416.875-.623v1.092c.014 12.322-6.146 23.832-16.406 30.656l-4.032 2.687 8.876 13.314 4.031-2.688c2.69-1.795 5.211-3.832 7.531-6.085v26.116h-32v-104h32zm-8-24v-18.158c7.653-4.418 10.275-14.204 5.856-21.856-4.418-7.653-14.204-10.275-21.856-5.856s-10.275 14.204-5.856 21.856c1.404 2.432 3.424 4.452 5.856 5.856v18.158h-11.471l-19.064-31.775 38.535-57.803 38.535 57.8-19.064 31.778zm136 240c-58.723-.072-107.447-45.432-111.711-104h48.226c.037.293.067.586.108.878l-17.9 10.337c-3.826 2.209-5.138 7.102-2.928 10.928 0 0 0 .001.001.001l16 27.712c2.209 3.827 7.102 5.138 10.928 2.929l17.917-10.345c4.686 3.657 9.855 6.648 15.36 8.888v20.672c0 4.418 3.582 8 8 8h32c4.418 0 8-3.582 8-8v-20.672c5.507-2.24 10.678-5.231 15.365-8.888l17.917 10.345c3.827 2.209 8.719.898 10.928-2.929l16-27.712c2.21-3.826.899-8.719-2.927-10.928h-.001l-17.9-10.337c.041-.292.071-.585.108-.878h48.226c-4.266 58.569-52.992 103.93-111.717 103.999zm-46.688-100.872c-1.749-7.316-1.749-14.94 0-22.256.816-3.44-.723-7.008-3.785-8.775l-15.881-9.169 8-13.856 15.892 9.175c3.065 1.771 6.929 1.317 9.5-1.116 5.459-5.16 12.05-8.972 19.245-11.131 3.392-1.01 5.717-4.129 5.717-7.668v-18.332h16v18.332c0 3.539 2.325 6.658 5.717 7.668 7.196 2.158 13.788 5.97 19.248 11.131 2.571 2.433 6.435 2.887 9.5 1.116l15.892-9.175 8 13.856-15.884 9.172c-3.062 1.767-4.601 5.335-3.785 8.775 1.749 7.316 1.749 14.94 0 22.256-.816 3.44.723 7.008 3.785 8.775l15.881 9.169-8 13.856-15.892-9.175c-3.065-1.771-6.929-1.317-9.5 1.116-5.459 5.159-12.05 8.97-19.245 11.128-3.392 1.01-5.717 4.129-5.717 7.668v18.332h-16v-18.332c0-3.539-2.325-6.658-5.717-7.668-7.196-2.158-13.788-5.97-19.248-11.131-2.571-2.433-6.435-2.887-9.5-1.116l-15.892 9.175-8-13.856 15.881-9.169c3.063-1.766 4.603-5.334 3.788-8.775zm262.688-27.128c-.005 4.416-3.584 7.995-8 8h-80.257c-.332-5.37-1.003-10.714-2.009-16h58.266c8.832-.01 15.99-7.168 16-16v-64h-16v64h-62.408c-16.214-49.034-60.248-83.567-111.734-87.624l2.58-1.72c3.663-2.471 4.63-7.443 2.159-11.106-2.452-3.635-7.374-4.619-11.035-2.206l-24 16c-3.676 2.451-4.669 7.418-2.218 11.094.586.878 1.339 1.632 2.218 2.218l24 16c3.689 2.432 8.651 1.413 11.083-2.275 2.414-3.662 1.43-8.585-2.207-11.037l-1.169-.779c54.137 5.552 96.481 49.158 100.442 103.435h-48.226c-.037-.293-.067-.586-.108-.878l17.9-10.337c3.826-2.209 5.138-7.102 2.928-10.928v-.001l-16-27.712c-2.209-3.827-7.102-5.138-10.928-2.929l-17.912 10.345c-4.687-3.657-9.858-6.648-15.365-8.888v-20.672c0-4.418-3.582-8-8-8h-32c-4.418 0-8 3.582-8 8v20.672c-5.507 2.24-10.678 5.231-15.365 8.888l-17.917-10.345c-3.826-2.209-8.719-.898-10.928 2.929l-16 27.712c-2.21 3.826-.899 8.719 2.927 10.928h.001l17.905 10.337c-.041.292-.071.585-.108.878h-48.515v-109.783l22.86-38.1c1.592-2.65 1.514-5.981-.2-8.554l-48-72c-2.451-3.676-7.418-4.669-11.094-2.218-.878.586-1.632 1.339-2.218 2.218l-48 72c-1.714 2.573-1.792 5.904-.2 8.554l22.852 38.1v109.784h-48c-4.416-.005-7.995-3.584-8-8v-264h448zm0-280h-448v-24c.005-4.416 3.584-7.995 8-8h432c4.416.005 7.995 3.584 8 8z"/><path d="m32 28h16v16h-16z"/><path d="m64 28h16v16h-16z"/><path d="m96 28h16v16h-16z"/><path d="m219.562 130.656 24 16 8.876-13.312-15.881-10.587 17.1-17.1-11.314-11.314-24 24c-3.124 3.124-3.124 8.19 0 11.314.373.372.781.707 1.219.999z"/><path d="m323.562 133.344 8.876 13.312 24-16c3.676-2.451 4.669-7.418 2.218-11.094-.292-.438-.627-.846-.999-1.219l-24-24-11.314 11.314 17.1 17.1z"/><path d="m259.156 115.999h57.689v16h-57.689z" transform="matrix(.555 -.832 .832 .555 25.073 294.848)"/><path d="m184 236h24v-16h-16v-120h16v-16h-24c-4.418 0-8 3.582-8 8v136c0 4.418 3.582 8 8 8z"/><path d="m400 228v-136c0-4.418-3.582-8-8-8h-24v16h16v120h-16v16h24c4.418 0 8-3.582 8-8z"/><path d="m432 212h16v16h-16z"/><path d="m216 164h16v16h-16z"/><path d="m248 164h80v16h-80z"/><path d="m344 164h16v16h-16z"/><path d="m280 196h80v16h-80z"/></svg>