<svg xmlns="http://www.w3.org/2000/svg" xml:space="preserve" style="enable-background:new 0 0 60 60" viewBox="0 0 60 60"><path d="M31.5 36v24h24V36h-24zm22 22h-9V45.414l4.293 4.293 1.414-1.414-6.707-6.707-6.707 6.707 1.414 1.414 4.293-4.293V58h-9V38h20v20zM11.333 18h13a1 1 0 1 0 0-2h-13a1 1 0 1 0 0 2zm0 28a1 1 0 1 0 0 2h11a1 1 0 1 0 0-2h-11zm29-24h-29a1 1 0 1 0 0 2h29a1 1 0 1 0 0-2zm-12 12h-17a1 1 0 1 0 0 2h17a1 1 0 1 0 0-2zm-2 7a1 1 0 0 0-1-1h-14a1 1 0 1 0 0 2h14a1 1 0 0 0 1-1zm-15-13a1 1 0 1 0 0 2h14a1 1 0 1 0 0-2h-14zm29 0h-7a1 1 0 1 0 0 2h7a1 1 0 1 0 0-2zm-11.703.29c-.19.189-.3.449-.3.71a1.009 1.009 0 0 0 1 1c.27 0 .53-.11.71-.29.19-.19.29-.45.29-.71 0-.261-.1-.521-.29-.71-.37-.37-1.05-.37-1.41 0z"/><path d="M27.5 56h-21V8h7v2a1 1 0 0 0 1 1h23a1 1 0 0 0 1-1V8h7v23a1 1 0 1 0 2 0V7a1 1 0 0 0-1-1h-8V4a1 1 0 0 0-1-1h-6V1a1 1 0 0 0-1-1h-9a1 1 0 0 0-1 1v2h-6a1 1 0 0 0-1 1v2h-8a1 1 0 0 0-1 1v50a1 1 0 0 0 1 1h22a1 1 0 1 0 0-2zm-5-54h7v4h-7V2zm-7 3h5v2a1 1 0 0 0 1 1h9a1 1 0 0 0 1-1V5h5v4h-21V5z"/></svg>