<svg xmlns="http://www.w3.org/2000/svg" width="512" height="512" viewBox="0 0 60 60"><g fill="none"><g transform="translate(1 1)"><path fill="#ff9801" d="M48 4c0 .225-.02.449-.06.67L44 4a11.69 11.69 0 0 0-3.94.67A3.71 3.71 0 0 1 40 4a4 4 0 1 1 8 0z"/><path fill="#f5f5f5" d="M54 34v20a4 4 0 0 1-4 4H4a4 4 0 0 1-4-4V20h32v9a2 2 0 0 0-2 2v2a1 1 0 0 0 1 1z"/><path fill="#cfd8dc" d="M27 31v2a1 1 0 0 0 1 1h3a1 1 0 0 1-1-1v-2a2 2 0 0 1 2-2v-9h-3v9a2 2 0 0 0-2 2zm24 3v20a4 4 0 0 1-4 4h3a4 4 0 0 0 4-4V34z"/><path fill="#02a9f4" d="M32.69 12a11.8 11.8 0 0 0-.69 4v4H0v-4a4 4 0 0 1 4-4z"/><path fill="#0377bc" d="M29.69 12a11.8 11.8 0 0 0-.69 4v4h3v-4a11.8 11.8 0 0 1 .69-4z"/><circle cx="4" cy="16" r="1" fill="#a4c400"/><circle cx="8" cy="16" r="1" fill="#ffeb3a"/><circle cx="12" cy="16" r="1" fill="#e91e63"/><path fill="#ffeb3a" d="M56 16v13H32V16a11.8 11.8 0 0 1 .69-4 12 12 0 0 1 7.37-7.33A11.69 11.69 0 0 1 44 4l3.94.67a11.84 11.84 0 0 1 4.55 2.84A12 12 0 0 1 56 16z"/><path fill="#fdd834" d="M44 4a12.32 12.32 0 0 0-1.5.1A12 12 0 0 1 53 16v13h3V16c0-6.627-5.373-12-12-12z"/><path fill="#f5f5f5" d="M36 17a1 1 0 0 1-1-1 9 9 0 0 1 9-9 1 1 0 0 1 0 2 7 7 0 0 0-7 7 1 1 0 0 1-1 1z"/><path fill="#ffdc00" d="M58 31v2a1 1 0 0 1-1 1H31a1 1 0 0 1-1-1v-2a2 2 0 0 1 2-2h24a2 2 0 0 1 2 2z"/><path fill="#fdd834" d="M56 29h-3a2 2 0 0 1 2 2v2a1 1 0 0 1-1 1h3a1 1 0 0 0 1-1v-2a2 2 0 0 0-2-2z"/><path fill="#f5f5f5" d="M36 24a1 1 0 0 1-1-1v-3a1 1 0 0 1 2 0v3a1 1 0 0 1-1 1z"/><path fill="#ff9801" d="M39 34a5 5 0 0 0 10 0"/></g><g fill="#000"><path d="M6 47h2a1 1 0 0 0 0-2H6a1 1 0 0 0 0 2zm21-2H12a1 1 0 0 0 0 2h15a1 1 0 0 0 0-2zM8 53H6a1 1 0 0 0 0 2h2a1 1 0 0 0 0-2zm19 0H12a1 1 0 0 0 0 2h15a1 1 0 0 0 0-2zm0-4h-2a1 1 0 0 0 0 2h2a1 1 0 0 0 0-2zM6 51h15a1 1 0 0 0 0-2H6a1 1 0 0 0 0 2z"/><path d="M58 29.18V17a13 13 0 0 0-8-12 5 5 0 0 0-10 0 13.11 13.11 0 0 0-7 7H5a5 5 0 0 0-5 5v38a5 5 0 0 0 5 5h46a5 5 0 0 0 5-5V36h2a2 2 0 0 0 2-2v-2a3 3 0 0 0-2-2.82zM45 2a3 3 0 0 1 2.92 2.34 12.71 12.71 0 0 0-5.84 0A3 3 0 0 1 45 2zm0 4c6.075 0 11 4.925 11 11v12H34V17c0-6.075 4.925-11 11-11zM5 14h27.36a12.9 12.9 0 0 0-.36 3v3H2v-3a3 3 0 0 1 3-3zm49 41a3 3 0 0 1-3 3H5a3 3 0 0 1-3-3V22h30v7.18A3 3 0 0 0 30 32v2a2 2 0 0 0 2 2h7.09a6 6 0 0 0 11.82 0H54zM41.14 36h7.72a4 4 0 0 1-7.72 0zM32 34v-2a1 1 0 0 1 1-1h24a1 1 0 0 1 1 1v2z"/></g></g></svg>