<svg height="512" viewBox="0 0 60 60" width="512" xmlns="http://www.w3.org/2000/svg"><g id="Page-1" fill="none" fill-rule="evenodd"><g id="053---browser-alert" fill-rule="nonzero"><g id="color" transform="translate(1 1)"><path id="Shape" d="m48 4c.00033.22468945-.0197526.44894435-.06.67l-3.94-.67c-1.342056-.0044871-2.6748629.22215772-3.94.67-.0402474-.22105565-.06033-.44531055-.06-.67 0-2.209139 1.790861-4 4-4s4 1.790861 4 4z" fill="#ff9801"/><path id="Shape" d="m54 34v20c0 2.209139-1.790861 4-4 4h-46c-2.209139 0-4-1.790861-4-4v-34h32v9c-1.1045695 0-2 .8954305-2 2v2c0 .5522847.4477153 1 1 1z" fill="#f5f5f5"/><path id="Shape" d="m27 31v2c0 .5522847.4477153 1 1 1h3c-.5522847 0-1-.4477153-1-1v-2c0-1.1045695.8954305-2 2-2v-9h-3v9c-1.1045695 0-2 .8954305-2 2z" fill="#cfd8dc"/><path id="Shape" d="m51 34v20c0 2.209139-1.790861 4-4 4h3c2.209139 0 4-1.790861 4-4v-20z" fill="#cfd8dc"/><path id="Shape" d="m32.69 12c-.4593213 1.2834682-.6927745 2.6368202-.69 4v4h-32v-4c0-2.209139 1.790861-4 4-4z" fill="#02a9f4"/><path id="Shape" d="m29.69 12c-.4593213 1.2834682-.6927745 2.6368202-.69 4l-.0000244 4h3.0000244v-4c-.0027745-1.3631798.2306787-2.7165318.69-4z" fill="#0377bc"/><circle id="Oval" cx="4" cy="16" fill="#a4c400" r="1"/><circle id="Oval" cx="8" cy="16" fill="#ffeb3a" r="1"/><circle id="Oval" cx="12" cy="16" fill="#e91e63" r="1"/><path id="Shape" d="m56 16 .0000037 13h-24.0000281l.0000244-13c-.0027745-1.3631798.2306787-2.7165318.69-4 1.2160688-3.43575601 3.9276769-6.13264707 7.37-7.33 1.2651371-.44784228 2.597944-.6744871 3.94-.67l3.94.67c1.7139443.58615064 3.2705474 1.55774465 4.55 2.84 2.2498629 2.25236525 3.5125034 5.3064445 3.51 8.49z" fill="#ffeb3a"/><path id="Shape" d="m44 4c-.5015694.00276794-1.0025018.03616343-1.5.1 5.9977779.75564825 10.4970373 5.85480891 10.5 11.9v13h3v-13c0-6.627417-5.372583-12-12-12z" fill="#fdd834"/><path id="Shape" d="m36 17c-.5522847 0-1-.4477153-1-1 0-4.9705627 4.0294373-9 9-9 .5522847 0 1 .44771525 1 1s-.4477153 1-1 1c-3.8659932 0-7 3.1340068-7 7 0 .5522847-.4477153 1-1 1z" fill="#f5f5f5"/><path id="Shape" d="m58 31v2c0 .5522847-.4477153 1-1 1h-26c-.5522847 0-1-.4477153-1-1v-2c0-1.1045695.8954305-2 2-2h24c1.1045695 0 2 .8954305 2 2z" fill="#ffdc00"/><path id="Shape" d="m56 29h-3c1.1045695 0 2 .8954305 2 2v2c0 .5522847-.4477153 1-1 1h3c.5522847 0 1-.4477153 1-1v-2c0-1.1045695-.8954305-2-2-2z" fill="#fdd834"/><path id="Shape" d="m36 24c-.5522847 0-1-.4477153-1-1v-3c0-.5522847.4477153-1 1-1s1 .4477153 1 1v3c0 .5522847-.4477153 1-1 1z" fill="#f5f5f5"/><path id="Shape" d="m39 34c0 2.7614237 2.2385763 5 5 5s5-2.2385763 5-5" fill="#ff9801"/></g><g id="Icons" fill="#000"><path id="Shape" d="m6 47h2c.55228475 0 1-.4477153 1-1s-.44771525-1-1-1h-2c-.55228475 0-1 .4477153-1 1s.44771525 1 1 1z"/><path id="Shape" d="m27 45h-15c-.5522847 0-1 .4477153-1 1s.4477153 1 1 1h15c.5522847 0 1-.4477153 1-1s-.4477153-1-1-1z"/><path id="Shape" d="m8 53h-2c-.55228475 0-1 .4477153-1 1s.44771525 1 1 1h2c.55228475 0 1-.4477153 1-1s-.44771525-1-1-1z"/><path id="Shape" d="m27 53h-15c-.5522847 0-1 .4477153-1 1s.4477153 1 1 1h15c.5522847 0 1-.4477153 1-1s-.4477153-1-1-1z"/><path id="Shape" d="m27 49h-2c-.5522847 0-1 .4477153-1 1s.4477153 1 1 1h2c.5522847 0 1-.4477153 1-1s-.4477153-1-1-1z"/><path id="Shape" d="m6 51h15c.5522847 0 1-.4477153 1-1s-.4477153-1-1-1h-15c-.55228475 0-1 .4477153-1 1s.44771525 1 1 1z"/><path id="Shape" d="m58 29.18v-12.18c0-5.2481111-3.1555898-9.98149575-8-12 0-2.76142375-2.2385763-5-5-5s-5 2.23857625-5 5c-3.1584827 1.32885072-5.6711493 3.84151727-7 7h-28c-2.76142375 0-5 2.2385763-5 5v38c0 2.7614237 2.23857625 5 5 5h46c2.7614237 0 5-2.2385763 5-5v-19h2c1.1045695 0 2-.8954305 2-2v-2c-.0035644-1.2682549-.8042713-2.3972517-2-2.82zm-13-27.18c1.4001291.00303418 2.6119742.97417032 2.92 2.34-1.920279-.45329022-3.919721-.45329022-5.84 0 .3080258-1.36582968 1.5198709-2.33696582 2.92-2.34zm0 4c6.0751322 0 11 4.9248678 11 11v12h-22v-12c0-6.0751322 4.9248678-11 11-11zm-40 8h27.36c-.2371033.9824453-.3579319 1.9893505-.36 3v3h-30v-3c0-1.6568542 1.34314575-3 3-3zm49 41c0 1.6568542-1.3431458 3-3 3h-46c-1.65685425 0-3-1.3431458-3-3v-33h30v7.18c-1.1957287.4227483-1.9964356 1.5517451-2 2.82v2c0 1.1045695.8954305 2 2 2h7.09c.5028712 2.8705634 2.9957224 4.964674 5.91 4.964674s5.4071288-2.0941106 5.91-4.964674h3.09zm-12.86-19h7.72c-.4733978 1.7419603-2.0548597 2.9510005-3.86 2.9510005s-3.3866022-1.2090402-3.86-2.9510005zm-9.14-2v-2c0-.5522847.4477153-1 1-1h24c.5522847 0 1 .4477153 1 1v2z"/></g></g></g></svg>