<svg height="512" viewBox="0 0 60 60" width="512" xmlns="http://www.w3.org/2000/svg"><g id="Page-1" fill="none" fill-rule="evenodd"><g id="053---browser-alert" fill="rgb(0,0,0)" fill-rule="nonzero"><circle id="Oval" cx="5" cy="17" r="1"/><circle id="Oval" cx="9" cy="17" r="1"/><circle id="Oval" cx="13" cy="17" r="1"/><path id="Shape" d="m6 47h2c.55228475 0 1-.4477153 1-1s-.44771525-1-1-1h-2c-.55228475 0-1 .4477153-1 1s.44771525 1 1 1z"/><path id="Shape" d="m27 45h-15c-.5522847 0-1 .4477153-1 1s.4477153 1 1 1h15c.5522847 0 1-.4477153 1-1s-.4477153-1-1-1z"/><path id="Shape" d="m8 53h-2c-.55228475 0-1 .4477153-1 1s.44771525 1 1 1h2c.55228475 0 1-.4477153 1-1s-.44771525-1-1-1z"/><path id="Shape" d="m27 53h-15c-.5522847 0-1 .4477153-1 1s.4477153 1 1 1h15c.5522847 0 1-.4477153 1-1s-.4477153-1-1-1z"/><path id="Shape" d="m27 49h-2c-.5522847 0-1 .4477153-1 1s.4477153 1 1 1h2c.5522847 0 1-.4477153 1-1s-.4477153-1-1-1z"/><path id="Shape" d="m6 51h15c.5522847 0 1-.4477153 1-1s-.4477153-1-1-1h-15c-.55228475 0-1 .4477153-1 1s.44771525 1 1 1z"/><path id="Shape" d="m37 18c.5522847 0 1-.4477153 1-1 .0044086-3.8641657 3.1358343-6.9955914 7-7 .5522847 0 1-.44771525 1-1s-.4477153-1-1-1c-4.9682782.00551113-8.9944889 4.0317218-9 9 0 .2652165.1053568.5195704.2928932.7071068s.4418903.2928932.7071068.2928932z"/><path id="Shape" d="m58 29.184v-12.184c-.0048349-5.246646-3.1588018-9.97759628-8-12 0-2.76142375-2.2385763-5-5-5s-5 2.23857625-5 5c-3.1609135 1.32523215-5.6747679 3.83908652-7 7h-28c-2.76005315.0033061-4.99669388 2.2399468-5 5v38c.00330612 2.7600532 2.23994685 4.9966939 5 5h46c2.7600532-.0033061 4.9966939-2.2399468 5-5v-19h2c1.1045695 0 2-.8954305 2-2v-2c-.0052514-1.2667854-.8056491-2.3937454-2-2.816zm-13-27.184c1.4021506.00195143 2.6159301.97488514 2.923 2.343-1.9218328-.45734104-3.9241672-.45734104-5.846 0 .3070699-1.36811486 1.5208494-2.34104857 2.923-2.343zm0 4c6.0721626.0071635 10.9928365 4.9278374 11 11v12h-22v-12c.0071635-6.0721626 4.9278374-10.9928365 11-11zm-40 8h27.363c-.2375608.9824253-.3593886 1.9892668-.363 3v3h-30v-3c0-1.6568542 1.34314575-3 3-3zm49 41c0 1.6568542-1.3431458 3-3 3h-46c-1.65685425 0-3-1.3431458-3-3v-33h30v7.184c-1.1943509.4222546-1.9947486 1.5492146-2 2.816v2c0 1.1045695.8954305 2 2 2h7.09c.4853307 2.8857455 2.9837271 4.9990438 5.91 4.9990438s5.4246693-2.1132983 5.91-4.9990438h3.09zm-12.858-19h7.716c-.4490235 1.7642024-2.0375517 2.9990647-3.858 2.9990647s-3.4089765-1.2348623-3.858-2.9990647zm-9.142-2v-2c0-.5522847.4477153-1 1-1h24c.5522847 0 1 .4477153 1 1v2z"/><path id="Shape" d="m37 25c.5522847 0 1-.4477153 1-1v-3c0-.5522847-.4477153-1-1-1s-1 .4477153-1 1v3c0 .5522847.4477153 1 1 1z"/></g></g></svg>