<svg xmlns="http://www.w3.org/2000/svg" width="512" height="512" viewBox="0 0 60 60"><circle cx="5" cy="17" r="1"/><circle cx="9" cy="17" r="1"/><circle cx="13" cy="17" r="1"/><path d="M6 47h2a1 1 0 0 0 0-2H6a1 1 0 0 0 0 2zm21-2H12a1 1 0 0 0 0 2h15a1 1 0 0 0 0-2zM8 53H6a1 1 0 0 0 0 2h2a1 1 0 0 0 0-2zm19 0H12a1 1 0 0 0 0 2h15a1 1 0 0 0 0-2zm0-4h-2a1 1 0 0 0 0 2h2a1 1 0 0 0 0-2zM6 51h15a1 1 0 0 0 0-2H6a1 1 0 0 0 0 2zm31-33a1 1 0 0 0 1-1 7.008 7.008 0 0 1 7-7 1 1 0 0 0 0-2 9.01 9.01 0 0 0-9 9 1 1 0 0 0 1 1z"/><path d="M58 29.184V17a13.018 13.018 0 0 0-8-12 5 5 0 0 0-10 0 13.07 13.07 0 0 0-7 7H5a5.006 5.006 0 0 0-5 5v38a5.006 5.006 0 0 0 5 5h46a5.006 5.006 0 0 0 5-5V36h2a2 2 0 0 0 2-2v-2a3 3 0 0 0-2-2.816zM45 2a3 3 0 0 1 2.923 2.343 12.626 12.626 0 0 0-5.846 0A3 3 0 0 1 45 2zm0 4c6.072.007 10.993 4.928 11 11v12H34V17c.007-6.072 4.928-10.993 11-11zM5 14h27.363c-.238.982-.36 1.99-.363 3v3H2v-3a3 3 0 0 1 3-3zm49 41a3 3 0 0 1-3 3H5a3 3 0 0 1-3-3V22h30v7.184A3 3 0 0 0 30 32v2a2 2 0 0 0 2 2h7.09a5.993 5.993 0 0 0 11.82 0H54zM41.142 36h7.716a3.981 3.981 0 0 1-7.716 0zM32 34v-2a1 1 0 0 1 1-1h24a1 1 0 0 1 1 1v2z"/><path d="M37 25a1 1 0 0 0 1-1v-3a1 1 0 0 0-2 0v3a1 1 0 0 0 1 1z"/></svg>