<svg xmlns="http://www.w3.org/2000/svg" xml:space="preserve" style="enable-background:new 0 0 512 512" viewBox="0 0 512 512"><path d="M425.298 51.358h-91.455V16.696c0-9.22-7.475-16.696-16.696-16.696H194.855c-9.22 0-16.696 7.475-16.696 16.696v34.662H86.704c-9.22 0-16.696 7.475-16.696 16.696v51.357c0 9.22 7.475 16.696 16.696 16.696h5.072l15.26 359.906c.378 8.937 7.735 15.988 16.68 15.988h264.568c8.946 0 16.302-7.051 16.68-15.989l15.259-359.906h5.073c9.22 0 16.696-7.475 16.696-16.696V68.054c.002-9.222-7.473-16.696-16.694-16.696zM211.551 33.391h88.9v17.967h-88.9V33.391zm160.732 445.218H139.719l-14.522-342.502h261.606l-14.52 342.502zm36.319-375.894H103.4V84.749h305.202v17.966z"/><path d="M188.835 187.304c-9.22 0-16.696 7.475-16.696 16.696v206.714c0 9.22 7.475 16.696 16.696 16.696 9.22 0 16.696-7.475 16.696-16.696V204c-.001-9.221-7.476-16.696-16.696-16.696zm67.163 0c-9.22 0-16.696 7.475-16.696 16.696v206.714c0 9.22 7.474 16.696 16.696 16.696 9.22 0 16.696-7.475 16.696-16.696V204c-.001-9.221-7.476-16.696-16.696-16.696zm67.163 0c-9.22 0-16.696 7.475-16.696 16.696v206.714c0 9.22 7.475 16.696 16.696 16.696s16.696-7.475 16.696-16.696V204c0-9.221-7.475-16.696-16.696-16.696z"/></svg>