<svg xmlns="http://www.w3.org/2000/svg" xml:space="preserve" style="enable-background:new 0 0 512 512" viewBox="0 0 512 512"><path d="M492.433 53.692 441.233 2.5A8.497 8.497 0 0 0 435.2 0H25.6a8.53 8.53 0 0 0-8.533 8.533v494.933a8.53 8.53 0 0 0 8.533 8.533h460.8a8.53 8.53 0 0 0 8.533-8.533V59.733a8.531 8.531 0 0 0-2.5-6.041zm-381.5 116.975v-153.6H179.2v153.6h-68.267zm85.334-153.6H384v153.6H196.267v-153.6zM384 494.933H110.933V273.067H384v221.866zm93.867 0h-76.8v-230.4a8.53 8.53 0 0 0-8.533-8.533H102.4a8.53 8.53 0 0 0-8.533 8.533v230.4H34.133V17.067h59.733V179.2a8.53 8.53 0 0 0 8.533 8.533h290.133a8.53 8.53 0 0 0 8.533-8.533V17.067h30.601l46.2 46.199v431.667z"/><path d="M349.867 34.133h-34.133a8.53 8.53 0 0 0-8.533 8.533v102.4a8.53 8.53 0 0 0 8.533 8.533h34.133a8.53 8.53 0 0 0 8.533-8.533v-102.4a8.53 8.53 0 0 0-8.533-8.533zm-8.534 102.4h-17.067V51.2h17.067v85.333zM153.6 332.8h187.733c4.719 0 8.533-3.823 8.533-8.533s-3.814-8.533-8.533-8.533H153.6c-4.719 0-8.533 3.823-8.533 8.533s3.814 8.533 8.533 8.533zm0 59.733h187.733c4.719 0 8.533-3.823 8.533-8.533s-3.814-8.533-8.533-8.533H153.6c-4.719 0-8.533 3.823-8.533 8.533s3.814 8.533 8.533 8.533zm0 59.734h187.733c4.719 0 8.533-3.823 8.533-8.533s-3.814-8.533-8.533-8.533H153.6c-4.719 0-8.533 3.823-8.533 8.533s3.814 8.533 8.533 8.533z"/></svg>