<?xml version="1.0" encoding="iso-8859-1"?>
<!-- Generator: Adobe Illustrator 19.0.0, SVG Export Plug-In . SVG Version: 6.00 Build 0)  -->
<svg version="1.1" id="Layer_1" xmlns="http://www.w3.org/2000/svg" xmlns:xlink="http://www.w3.org/1999/xlink" x="0px" y="0px"
	 viewBox="0 0 512 512" style="enable-background:new 0 0 512 512;" xml:space="preserve">
<g>
	<g>
		<g>
			<path d="M492.433,53.692L441.233,2.5C439.637,0.896,437.47,0,435.2,0h-42.667H102.4H25.6c-4.719,0-8.533,3.823-8.533,8.533
				v494.933c0,4.71,3.814,8.533,8.533,8.533h460.8c4.719,0,8.533-3.823,8.533-8.533V59.733
				C494.933,57.464,494.037,55.296,492.433,53.692z M110.933,170.667v-153.6H179.2v153.6H110.933z M196.267,17.067H384v153.6
				H196.267V17.067z M384,494.933H110.933V273.067H384V494.933z M477.867,494.933h-76.8v-230.4c0-4.71-3.814-8.533-8.533-8.533
				H102.4c-4.719,0-8.533,3.823-8.533,8.533v230.4H34.133V17.067h59.733V179.2c0,4.71,3.814,8.533,8.533,8.533h290.133
				c4.719,0,8.533-3.823,8.533-8.533V17.067h30.601l46.2,46.199V494.933z"/>
			<path d="M349.867,34.133h-34.133c-4.719,0-8.533,3.823-8.533,8.533v102.4c0,4.71,3.814,8.533,8.533,8.533h34.133
				c4.719,0,8.533-3.823,8.533-8.533v-102.4C358.4,37.956,354.586,34.133,349.867,34.133z M341.333,136.533h-17.067V51.2h17.067
				V136.533z"/>
			<path d="M153.6,332.8h187.733c4.719,0,8.533-3.823,8.533-8.533s-3.814-8.533-8.533-8.533H153.6c-4.719,0-8.533,3.823-8.533,8.533
				S148.881,332.8,153.6,332.8z"/>
			<path d="M153.6,392.533h187.733c4.719,0,8.533-3.823,8.533-8.533s-3.814-8.533-8.533-8.533H153.6
				c-4.719,0-8.533,3.823-8.533,8.533S148.881,392.533,153.6,392.533z"/>
			<path d="M153.6,452.267h187.733c4.719,0,8.533-3.823,8.533-8.533s-3.814-8.533-8.533-8.533H153.6
				c-4.719,0-8.533,3.823-8.533,8.533S148.881,452.267,153.6,452.267z"/>
		</g>
	</g>
</g>
<g>
</g>
<g>
</g>
<g>
</g>
<g>
</g>
<g>
</g>
<g>
</g>
<g>
</g>
<g>
</g>
<g>
</g>
<g>
</g>
<g>
</g>
<g>
</g>
<g>
</g>
<g>
</g>
<g>
</g>
</svg>
