<svg xmlns="http://www.w3.org/2000/svg" width="512pt" height="512pt" viewBox="0 0 512 512"><path d="M108.426 256c0 36.523 13.472 71.098 37 97.719 58.82 66.508 162.46 66.355 221.148 0a147.446 147.446 0 0 0 37-97.719c0-81.375-66.199-147.578-147.574-147.578-81.371 0-147.574 66.203-147.574 147.578zm86.797-16.355c0-4 2.82-7.329 6.43-9.016v18.488c-3.97-1.594-6.43-5.351-6.43-9.472zm5.617-24.52v-10.773c0-30.09 24.484-54.575 54.574-54.575 30.094 0 54.574 24.485 54.574 54.575v10.503a20.025 20.025 0 0 0-.843-.148c-.188-3.273-2.02-5.418-4.81-8.527-2.378-2.645-5.605-6.004-12.858-13.801a11.705 11.705 0 0 0-15-1.828c-18.614 12.16-41.297 18.27-62.227 16.765-5.18-.39-9.969 2.727-11.816 7.493-.075.011-1.555.308-1.594.316zm108.34 15.055c3.773 1.504 6.43 5.187 6.43 9.465 0 4.12-2.465 7.875-6.43 9.472zm-92.528 25.918v-33.63c22.282.833 45.883-5.593 65.7-17.878 6.527 6.996 10.183 10.828 11.828 12.715v38.812c-.075 21.29-17.364 38.082-38.102 38.082-24.32 0-39.426-18.996-39.426-38.101zm39.426 53.101c6.602 0 13.45-1.375 18.324-3.258v5.239c0 5.101 2.914 9.797 7.375 12.129-14.554 15.027-37.668 15.164-52.375.351 4.891-2.27 8.125-7.265 8.125-12.703v-4.727c6.098 2.063 12.582 2.97 18.551 2.97zm-41.77 20.352 3.419 3.633c20.71 22 54.671 21.996 75.375 0l3.718-3.95c6.368 2.465 44.594 17.27 50.864 19.696a25.423 25.423 0 0 1 1.844.941c-24.716 24.621-58.2 38.703-93.528 38.703-34.223 0-68-13.27-93.527-38.707a27.404 27.404 0 0 1 1.754-.898c.023-.008.062-.028.078-.032 30.937-11.996 19.449-7.542 50.004-19.386zm145.399 8.937c-3.418-2.199-5.93-3.27-6.328-3.437l-.149-.059c-24.113-9.34-53.484-20.715-63.828-24.719v-12.875c9.938-8.03 16.926-19.566 19.075-32.714 13-1.727 22.132-12.575 22.132-25.04 0-5.832-2.011-11.41-5.62-15.855v-19.437c0-38.364-31.212-69.575-69.571-69.575-38.363 0-69.574 31.211-69.574 69.575v19.945c-3.649 4.39-5.621 9.71-5.621 15.351 0 12.516 9.195 23.34 22.172 25.043 2.175 12.848 9.152 25.16 20.132 33.567v12.02c-.398.152-8.93 3.46-8.93 3.46l-54.827 21.254-.145.059c-.402.164-2.914 1.238-6.332 3.437-68.996-86.566-6.98-215.062 103.707-215.062 110.695 0 172.7 128.504 103.707 215.062zm128.984-141.207h-33.113c-.043 0-.078-.027-.09-.074a207.38 207.38 0 0 0-16.886-40.66c-.024-.043-.02-.09.011-.121l23.442-23.446c9.113-9.105 9.113-23.851.004-32.96L411.98 49.94c-9.109-9.109-23.851-9.109-32.964 0L355.57 73.387c-.027.031-.074.035-.117.011a207.047 207.047 0 0 0-40.66-16.882c-.047-.016-.074-.051-.074-.094V23.309C314.719 10.457 304.262 0 291.41 0h-18.496a7.5 7.5 0 1 0 0 15h18.496c4.582 0 8.309 3.727 8.309 8.309v33.113c0 6.644 4.453 12.601 10.836 14.48a191.956 191.956 0 0 1 37.707 15.66c5.847 3.192 13.215 2.137 17.918-2.57l23.445-23.445a8.306 8.306 0 0 1 11.75 0l50.074 50.078a8.302 8.302 0 0 1 0 11.75l-23.441 23.445c-4.707 4.703-5.766 12.07-2.57 17.914a192.202 192.202 0 0 1 15.66 37.715c1.882 6.38 7.836 10.832 14.48 10.832h33.113c4.582 0 8.309 3.73 8.309 8.309v17.91c0 4.14 3.355 7.5 7.5 7.5s7.5-3.36 7.5-7.5v-17.91c0-12.852-10.457-23.309-23.309-23.309zm0 0"/><path d="M504.5 266a7.5 7.5 0 0 0-7.5 7.5v17.91c0 4.578-3.727 8.309-8.309 8.309h-33.113c-6.644 0-12.601 4.453-14.48 10.832a192.169 192.169 0 0 1-15.66 37.71c-3.192 5.844-2.137 13.212 2.566 17.919l23.445 23.445a8.299 8.299 0 0 1 0 11.75l-50.074 50.074c-3.238 3.239-8.512 3.242-11.75 0l-23.445-23.445c-4.703-4.703-12.07-5.758-17.918-2.57a192.004 192.004 0 0 1-37.711 15.664c-6.38 1.879-10.832 7.832-10.832 14.48v33.113c0 4.579-3.73 8.309-8.309 8.309h-70.82c-4.578 0-8.309-3.73-8.309-8.309v-33.113c0-6.648-4.453-12.601-10.836-14.48a191.97 191.97 0 0 1-37.707-15.664c-5.847-3.192-13.215-2.137-17.918 2.57l-23.445 23.445c-3.238 3.239-8.508 3.242-11.746 0L60.55 401.371a8.298 8.298 0 0 1 0-11.746l23.445-23.445c4.703-4.707 5.762-12.075 2.567-17.918a192.088 192.088 0 0 1-15.66-37.711c-1.88-6.38-7.833-10.836-14.481-10.836H23.309c-4.582 0-8.309-3.727-8.309-8.309V220.59c0-4.582 3.727-8.309 8.309-8.309h33.113c6.644 0 12.601-4.457 14.48-10.836a192.088 192.088 0 0 1 15.66-37.71c3.192-5.844 2.137-13.212-2.57-17.919l-23.441-23.445a8.294 8.294 0 0 1 0-11.746l50.074-50.078a8.302 8.302 0 0 1 11.75 0l23.441 23.445c4.707 4.707 12.075 5.766 17.918 2.57a192.143 192.143 0 0 1 37.711-15.664c6.38-1.875 10.836-7.832 10.836-14.476V23.309c0-4.582 3.727-8.309 8.309-8.309h17.324a7.5 7.5 0 1 0 0-15H220.59c-12.852 0-23.309 10.457-23.309 23.309v33.113c0 .043-.027.078-.074.09a207.235 207.235 0 0 0-40.664 16.886c-.043.024-.086.02-.117-.011L132.984 49.94c-9.109-9.109-23.851-9.109-32.964 0l-50.08 50.08c-9.109 9.105-9.113 23.851 0 32.96l23.446 23.446c.031.031.035.078.011.12-7.07 12.95-12.753 26.63-16.886 40.661a.094.094 0 0 1-.09.074H23.309C10.457 197.281 0 207.738 0 220.59v70.82c0 12.852 10.457 23.309 23.309 23.309h33.113c.043 0 .078.027.09.074a206.923 206.923 0 0 0 16.886 40.66c.024.043.02.09-.011.121L49.94 379.016c-9.109 9.109-9.109 23.855 0 32.964l50.079 50.079c9.09 9.086 23.875 9.086 32.96 0l23.446-23.45c.031-.027.074-.03.117-.007a207.235 207.235 0 0 0 40.664 16.886c.043.012.074.047.074.09v33.113c0 12.852 10.457 23.309 23.309 23.309h70.816c12.852 0 23.309-10.457 23.309-23.309v-33.113c0-.043.031-.078.074-.09a207.2 207.2 0 0 0 40.66-16.886c.043-.024.09-.02.121.011l23.446 23.446c9.086 9.086 23.875 9.086 32.964 0l50.075-50.079c9.11-9.109 9.113-23.851 0-32.96l-23.446-23.446c-.03-.031-.035-.078-.011-.12a207.241 207.241 0 0 0 16.886-40.661.094.094 0 0 1 .09-.074h33.117c12.852 0 23.305-10.457 23.305-23.309V273.5a7.496 7.496 0 0 0-7.496-7.5zm0 0"/></svg>