<svg xmlns="http://www.w3.org/2000/svg" width="512" height="512" viewBox="0 0 64 64"><g data-name="Monitor setting"><path d="M57 10h-3a1 1 0 0 0 0 2h3a3 3 0 0 1 3 3v32a3 3 0 0 1-3 3H7a3 3 0 0 1-3-3V15a3 3 0 0 1 3-3h3a1 1 0 0 0 0-2H7a5.006 5.006 0 0 0-5 5v32a5.006 5.006 0 0 0 5 5h18v4h-7a3 3 0 0 0 0 6h28a3 3 0 0 0 0-6h-7v-4h18a5.006 5.006 0 0 0 5-5V15a5.006 5.006 0 0 0-5-5ZM47 59a1 1 0 0 1-1 1H18a1 1 0 0 1 0-2h28a1 1 0 0 1 1 1Zm-10-3H27v-4h10Z"/><path d="M31 47a1 1 0 0 0 0 2h2a1 1 0 0 0 0-2Zm3-26h1.756l-1.243 1.243a1 1 0 0 0 0 1.414l2.83 2.83a1 1 0 0 0 1.414 0L40 25.244V27a1 1 0 0 0 1 1h4a1 1 0 0 0 1-1v-1.756l1.243 1.243a1 1 0 0 0 1.414 0l2.83-2.83a1 1 0 0 0 0-1.414L50.244 21H52a1 1 0 0 0 1-1v-4a1 1 0 0 0-1-1h-1.756l1.243-1.243a1 1 0 0 0 0-1.414l-2.83-2.83a1 1 0 0 0-1.414 0L46 10.756V9a1 1 0 0 0-1-1h-4a1 1 0 0 0-1 1v1.756l-1.243-1.243a1 1 0 0 0-1.414 0l-2.83 2.83a1 1 0 0 0 0 1.414L35.756 15H34a1 1 0 0 0-1 1v4a1 1 0 0 0 1 1Zm1-4h2.35a1 1 0 0 0 .958-.713 2.239 2.239 0 0 1 .167-.4 1 1 0 0 0-.178-1.173l-1.663-1.664 1.416-1.416 1.663 1.666a1 1 0 0 0 1.171.179 2.262 2.262 0 0 1 .4-.168A1 1 0 0 0 42 12.35V10h2v2.35a1 1 0 0 0 .713.958 2.262 2.262 0 0 1 .4.168 1 1 0 0 0 1.171-.179l1.663-1.663 1.416 1.416-1.663 1.663a1 1 0 0 0-.179 1.171 2.262 2.262 0 0 1 .168.4 1 1 0 0 0 .961.716H51v2h-2.35a1 1 0 0 0-.958.713 2.262 2.262 0 0 1-.168.4 1 1 0 0 0 .179 1.171l1.663 1.663-1.416 1.419-1.663-1.666a1 1 0 0 0-1.171-.179 2.262 2.262 0 0 1-.4.168 1 1 0 0 0-.716.961V26h-2v-2.35a1 1 0 0 0-.713-.958 2.262 2.262 0 0 1-.4-.168 1 1 0 0 0-1.171.179l-1.666 1.663-1.416-1.416 1.666-1.663a1 1 0 0 0 .178-1.173 2.239 2.239 0 0 1-.167-.4A1 1 0 0 0 37.35 19H35Z"/><path d="M26 28v3.753c-.144.057-.283.114-.419.174l-2.654-2.654a1 1 0 0 0-1.414 0l-4.24 4.24a1 1 0 0 0 0 1.414l2.654 2.654c-.06.136-.117.275-.174.419H16a1 1 0 0 0-1 1v5H8V16h2a1 1 0 0 0 0-2H7a1 1 0 0 0-1 1v30a1 1 0 0 0 1 1h50a1 1 0 0 0 1-1V15a1 1 0 0 0-1-1h-2a1 1 0 0 0 0 2h1v28H45v-5a1 1 0 0 0-1-1h-3.753a11.751 11.751 0 0 0-.174-.419l2.654-2.654a1 1 0 0 0 0-1.414l-4.24-4.24a1.029 1.029 0 0 0-1.414 0l-2.654 2.654c-.136-.06-.275-.117-.419-.174V28a1 1 0 0 0-1-1h-6a1 1 0 0 0-1 1Zm0 14a4 4 0 0 1 8 0 3.943 3.943 0 0 1-.544 2h-6.912A3.943 3.943 0 0 1 26 42Zm2-9.54V29h4v3.46a1 1 0 0 0 .694.952 8.259 8.259 0 0 1 1.445.605 1 1 0 0 0 1.188-.17l2.453-2.453 2.826 2.826-2.453 2.453a1 1 0 0 0-.17 1.188 8.259 8.259 0 0 1 .605 1.445 1 1 0 0 0 .952.694H43v4h-7.346a6 6 0 1 0-11.308 0H17v-4h3.46a1 1 0 0 0 .952-.694 8.259 8.259 0 0 1 .605-1.445 1 1 0 0 0-.17-1.188l-2.453-2.453 2.826-2.826 2.453 2.453a1 1 0 0 0 1.188.17 8.259 8.259 0 0 1 1.445-.605A1 1 0 0 0 28 32.46Z"/><path d="M43 22a4 4 0 1 0-4-4 4 4 0 0 0 4 4Zm0-6a2 2 0 1 1-2 2 2 2 0 0 1 2-2Zm-30-1h1.756l-1.243 1.243a1 1 0 0 0 0 1.414l2.83 2.83a1 1 0 0 0 1.414 0L19 19.244V21a1 1 0 0 0 1 1h4a1 1 0 0 0 1-1v-1.756l1.243 1.243a1 1 0 0 0 1.414 0l2.83-2.83a1 1 0 0 0 0-1.414L29.244 15H31a1 1 0 0 0 1-1v-4a1 1 0 0 0-1-1h-1.756l1.243-1.243a1 1 0 0 0 0-1.414l-2.83-2.83a1 1 0 0 0-1.414 0L25 4.756V3a1 1 0 0 0-1-1h-4a1 1 0 0 0-1 1v1.756l-1.243-1.243a1 1 0 0 0-1.414 0l-2.83 2.83a1 1 0 0 0 0 1.414L14.756 9H13a1 1 0 0 0-1 1v4a1 1 0 0 0 1 1Zm1-4h2.35a1 1 0 0 0 .958-.713 2.239 2.239 0 0 1 .167-.4 1 1 0 0 0-.175-1.174L15.634 7.05l1.416-1.416L18.713 7.3a1 1 0 0 0 1.171.179 2.262 2.262 0 0 1 .4-.168A1 1 0 0 0 21 6.35V4h2v2.35a1 1 0 0 0 .713.958 2.262 2.262 0 0 1 .4.168 1 1 0 0 0 1.174-.176l1.663-1.666 1.416 1.416L26.7 8.713a1 1 0 0 0-.179 1.171 2.262 2.262 0 0 1 .168.4 1 1 0 0 0 .961.716H30v2h-2.35a1 1 0 0 0-.958.713 2.262 2.262 0 0 1-.168.4 1 1 0 0 0 .179 1.171l1.663 1.663-1.416 1.419-1.663-1.666a1 1 0 0 0-1.171-.179 2.262 2.262 0 0 1-.4.168 1 1 0 0 0-.716.961V20h-2v-2.35a1 1 0 0 0-.713-.958 2.262 2.262 0 0 1-.4-.168 1 1 0 0 0-1.171.179l-1.666 1.663-1.416-1.416 1.666-1.663a1 1 0 0 0 .178-1.173 2.239 2.239 0 0 1-.167-.4A1 1 0 0 0 16.35 13H14Z"/><path d="M22 16a4 4 0 1 0-4-4 4 4 0 0 0 4 4Zm0-6a2 2 0 1 1-2 2 2 2 0 0 1 2-2Z"/></g></svg>