<svg height="512pt" viewBox="0 0 512 512" width="512pt" xmlns="http://www.w3.org/2000/svg"><path d="m108.425781 256c0 36.523438 13.472657 71.097656 37 97.71875 58.820313 66.507812 162.460938 66.355469 221.148438 0 23.128906-26.121094 37-60.65625 37-97.71875 0-81.375-66.199219-147.578125-147.574219-147.578125-81.371094 0-147.574219 66.203125-147.574219 147.578125zm86.796875-16.355469c0-4 2.820313-7.328125 6.429688-9.015625v18.488282c-3.96875-1.59375-6.429688-5.351563-6.429688-9.472657zm5.617188-24.519531v-10.773438c0-30.089843 24.484375-54.574218 54.574218-54.574218 30.09375 0 54.574219 24.484375 54.574219 54.574218v10.503907c-.28125-.054688-.558593-.105469-.84375-.148438-.1875-3.273437-2.019531-5.417969-4.808593-8.527343-2.378907-2.644532-5.605469-6.003907-12.859376-13.800782-3.902343-4.191406-10.210937-4.957031-15-1.828125-18.613281 12.160157-41.296874 18.269531-62.226562 16.765625-5.179688-.390625-9.96875 2.726563-11.816406 7.492188-.074219.011718-1.554688.308594-1.59375.316406zm108.339844 15.054688c3.773437 1.503906 6.429687 5.1875 6.429687 9.464843 0 4.121094-2.464844 7.875-6.429687 9.472657zm-92.527344 25.917968v-33.628906c22.28125.832031 45.882812-5.59375 65.699218-17.878906 6.527344 6.996094 10.183594 10.828125 11.828126 12.714844v38.8125c-.074219 21.289062-17.363282 38.082031-38.101563 38.082031-24.320313 0-39.425781-18.996094-39.425781-38.101563zm39.425781 53.101563c6.601563 0 13.449219-1.375 18.324219-3.257813v5.238282c0 5.101562 2.914062 9.796874 7.375 12.128906-14.554688 15.027344-37.667969 15.164062-52.375.351562 4.890625-2.269531 8.125-7.265625 8.125-12.703125v-4.726562c6.097656 2.0625 12.582031 2.96875 18.550781 2.96875zm-41.769531 20.351562 3.417968 3.632813c20.710938 22 54.671876 21.996094 75.375 0l3.71875-3.949219c6.367188 2.464844 44.59375 17.269531 50.863282 19.695313.003906.003906.015625.007812.019531.007812.207031.09375.863281.398438 1.824219.933594-24.714844 24.621094-58.199219 38.703125-93.527344 38.703125-34.222656 0-68-13.269531-93.527344-38.707031.917969-.507813 1.535156-.796876 1.753906-.898438.023438-.007812.0625-.027344.078126-.03125 30.9375-11.996094 19.449218-7.542969 50.003906-19.386719zm145.398437 8.9375c-3.417969-2.199219-5.929687-3.269531-6.328125-3.4375-.050781-.019531-.101562-.039062-.148437-.058593-24.113281-9.339844-53.484375-20.714844-63.828125-24.71875v-12.875c9.9375-8.03125 16.925781-19.566407 19.074218-32.714844 13-1.726563 22.132813-12.574219 22.132813-25.039063 0-5.832031-2.011719-11.410156-5.621094-15.855469v-19.4375c0-38.363281-31.210937-69.574218-69.570312-69.574218-38.363281 0-69.574219 31.210937-69.574219 69.574218v19.945313c-3.648438 4.390625-5.621094 9.710937-5.621094 15.351563 0 12.515624 9.195313 23.339843 22.171875 25.042968 2.175781 12.847656 9.152344 25.160156 20.132813 33.566406v12.019532c-.398438.152344-8.929688 3.460937-8.929688 3.460937l-54.828125 21.253907c-.046875.019531-.097656.039062-.144531.058593-.402344.164063-2.914062 1.238281-6.332031 3.4375-68.996094-86.566406-6.980469-215.0625 103.707031-215.0625 110.695312 0 172.699219 128.503907 103.707031 215.0625zm0 0"/><path d="m488.691406 197.28125h-33.113281c-.042969 0-.078125-.027344-.089844-.074219-4.140625-14.039062-9.820312-27.722656-16.886719-40.660156-.023437-.042969-.019531-.089844.011719-.121094l23.441407-23.445312c9.113281-9.105469 9.113281-23.851563.003906-32.960938l-50.078125-50.078125c-9.109375-9.109375-23.851563-9.109375-32.964844 0l-23.445313 23.445313c-.027343.03125-.074218.035156-.117187.011719-12.945313-7.070313-26.628906-12.75-40.660156-16.882813-.046875-.015625-.074219-.050781-.074219-.09375v-33.113281c0-12.851563-10.457031-23.308594-23.308594-23.308594h-18.496094c-4.140624 0-7.5 3.359375-7.5 7.5 0 4.144531 3.359376 7.5 7.5 7.5h18.496094c4.582032 0 8.308594 3.726562 8.308594 8.308594v33.113281c0 6.644531 4.453125 12.601563 10.835938 14.480469 13.011718 3.832031 25.699218 9.101562 37.707031 15.660156 5.847656 3.191406 13.214843 2.136719 17.917969-2.570312l23.445312-23.445313c3.246094-3.246094 8.503906-3.246094 11.75 0l50.074219 50.078125c3.242187 3.242188 3.253906 8.492188 0 11.75l-23.441407 23.445312c-4.707031 4.703126-5.765624 12.070313-2.570312 17.914063 6.554688 12.003906 11.824219 24.695313 15.660156 37.714844 1.882813 6.378906 7.835938 10.832031 14.480469 10.832031h33.113281c4.582032 0 8.308594 3.730469 8.308594 8.308594v17.910156c0 4.140625 3.355469 7.5 7.5 7.5s7.5-3.359375 7.5-7.5v-17.910156c0-12.851563-10.457031-23.308594-23.308594-23.308594zm0 0"/><path d="m504.5 266c-4.144531 0-7.5 3.359375-7.5 7.5v17.910156c0 4.578125-3.726562 8.308594-8.308594 8.308594h-33.113281c-6.644531 0-12.601563 4.453125-14.480469 10.832031-3.835937 13.019531-9.105468 25.707031-15.660156 37.710938-3.191406 5.84375-2.136719 13.210937 2.566406 17.917969l23.445313 23.445312c3.25 3.246094 3.25 8.5 0 11.75l-50.074219 50.074219c-3.238281 3.238281-8.511719 3.242187-11.75 0l-23.445312-23.445313c-4.703126-4.703125-12.070313-5.757812-17.917969-2.570312-12.011719 6.5625-24.695313 11.828125-37.710938 15.664062-6.378906 1.878906-10.832031 7.832032-10.832031 14.480469v33.113281c0 4.578125-3.730469 8.308594-8.308594 8.308594h-70.820312c-4.578125 0-8.308594-3.730469-8.308594-8.308594v-33.113281c0-6.648437-4.453125-12.601563-10.835938-14.480469-13.011718-3.835937-25.699218-9.101562-37.707031-15.664062-5.847656-3.191406-13.214843-2.136719-17.917969 2.570312l-23.445312 23.445313c-3.238281 3.238281-8.507812 3.242187-11.746094 0l-50.078125-50.078125c-3.246093-3.246094-3.25-8.5 0-11.746094l23.445313-23.445312c4.703125-4.707032 5.761718-12.074219 2.566406-17.917969-6.558594-12.011719-11.828125-24.699219-15.660156-37.710938-1.878906-6.378906-7.832032-10.835937-14.480469-10.835937h-33.113281c-4.582032 0-8.308594-3.726563-8.308594-8.308594v-70.816406c0-4.582032 3.726562-8.308594 8.308594-8.308594h33.113281c6.644531 0 12.601563-4.457031 14.480469-10.835938 3.832031-13.011718 9.101562-25.699218 15.660156-37.710937 3.191406-5.84375 2.136719-13.210937-2.570312-17.917969l-23.441407-23.445312c-3.25-3.246094-3.25-8.5 0-11.746094l50.074219-50.078125c3.242188-3.242187 8.496094-3.253906 11.75 0l23.441406 23.445313c4.707032 4.707031 12.074219 5.765624 17.917969 2.570312 12.007813-6.558594 24.695313-11.828125 37.710937-15.664062 6.378907-1.875 10.835938-7.832032 10.835938-14.476563v-33.113281c0-4.582032 3.726562-8.308594 8.308594-8.308594h17.324218c4.140626 0 7.5-3.355469 7.5-7.5 0-4.140625-3.359374-7.5-7.5-7.5h-17.324218c-12.851563 0-23.308594 10.457031-23.308594 23.308594v33.113281c0 .042969-.027344.078125-.074219.089844-14.035156 4.136719-27.71875 9.816406-40.664062 16.886719-.042969.023437-.085938.019531-.117188-.011719l-23.441406-23.445313c-9.109375-9.109375-23.851563-9.109375-32.964844 0l-50.078125 50.078125c-9.109375 9.105469-9.113281 23.851563 0 32.960938l23.445313 23.445312c.03125.03125.035156.078125.011719.121094-7.070313 12.949219-12.753907 26.628906-16.886719 40.660156-.011719.046875-.050781.074219-.089844.074219h-33.113281c-12.851563 0-23.308594 10.457031-23.308594 23.308594v70.820312c0 12.851563 10.457031 23.308594 23.308594 23.308594h33.113281c.042969 0 .078125.027344.089844.074219 4.132812 14.03125 9.8125 27.710937 16.886719 40.660156.023437.042969.019531.089844-.011719.121094l-23.445313 23.441406c-9.109375 9.109375-9.109375 23.855469 0 32.964844l50.078125 50.078125c9.089844 9.085937 23.875 9.085937 32.960938 0l23.445312-23.449219c.03125-.027344.074219-.03125.117188-.007813 12.945312 7.070313 26.628906 12.75 40.664062 16.886719.042969.011719.074219.046875.074219.089844v33.113281c0 12.851563 10.457031 23.308594 23.308594 23.308594h70.816406c12.851562 0 23.308594-10.457031 23.308594-23.308594v-33.113281c0-.042969.03125-.078125.074218-.089844 14.035157-4.136719 27.714844-9.816406 40.660157-16.886719.042969-.023437.089843-.019531.121093.011719l23.445313 23.445313c9.085937 9.085937 23.875 9.085937 32.964844 0l50.074219-50.078125c9.109374-9.109375 9.113281-23.851563 0-32.960938l-23.445313-23.445312c-.03125-.03125-.035156-.078125-.011719-.121094 7.066406-12.941406 12.75-26.621094 16.886719-40.660156.011719-.046875.050781-.074219.089844-.074219h33.117187c12.851563 0 23.304688-10.457031 23.304688-23.308594v-17.910156c.003906-4.140625-3.355469-7.5-7.496094-7.5zm0 0"/></svg>