<svg xmlns="http://www.w3.org/2000/svg" width="512pt" height="512pt" viewBox="0 0 512 512"><path d="M90.05 395.95c-7.167 0-14.058 1.788-20.171 5.148C37.676 359.816 20 308.535 20 256 20 125.867 125.867 20 256 20c15.82 0 31.633 1.574 47 4.68 5.406 1.093 10.688-2.407 11.781-7.82s-2.406-10.688-7.82-11.786C290.293 1.707 273.148 0 256 0 187.621 0 123.332 26.629 74.98 74.98 26.63 123.332 0 187.621 0 256c0 57.52 19.531 113.652 55.09 158.652-4.578 6.84-7.04 14.88-7.04 23.297 0 11.219 4.372 21.766 12.305 29.696 7.93 7.933 18.477 12.304 29.696 12.304s21.765-4.37 29.699-12.304c7.934-7.93 12.3-18.48 12.3-29.7 0-11.215-4.366-21.765-12.3-29.695-7.934-7.934-18.48-12.3-29.7-12.3zm15.555 57.554c-4.152 4.156-9.68 6.445-15.554 6.445s-11.399-2.289-15.555-6.445-6.445-9.68-6.445-15.555a21.855 21.855 0 0 1 6.445-15.558c4.152-4.157 9.68-6.442 15.555-6.442s11.398 2.29 15.554 6.442a21.856 21.856 0 0 1 6.446 15.558c0 5.875-2.29 11.399-6.446 15.555zM456.902 97.336c10.871-16.309 9.125-38.606-5.254-52.984-7.933-7.93-18.48-12.301-29.699-12.301s-21.765 4.37-29.699 12.3c-7.934 7.934-12.3 18.481-12.3 29.7s4.366 21.765 12.3 29.699 18.48 12.3 29.7 12.3c7.167 0 14.058-1.788 20.171-5.148C474.324 152.187 492 203.465 492 256c0 130.133-105.867 236-236 236-15.664 0-31.328-1.543-46.55-4.59-5.415-1.082-10.684 2.43-11.77 7.844-1.082 5.418 2.43 10.683 7.843 11.77A258.08 258.08 0 0 0 256 512c68.379 0 132.668-26.629 181.02-74.98C485.37 388.668 512 324.379 512 256c0-57.523-19.535-113.66-55.098-158.664zm-50.507-7.727a21.856 21.856 0 0 1-6.446-15.558c0-5.875 2.29-11.399 6.446-15.555 4.152-4.156 9.68-6.445 15.554-6.445s11.403 2.289 15.559 6.445c8.574 8.578 8.574 22.535 0 31.113a21.875 21.875 0 0 1-15.559 6.442 21.853 21.853 0 0 1-15.554-6.442zm0 0"/><path d="M214.734 428c0 5.523 4.48 10 10 10h62.528c5.523 0 10-4.477 10-10v-19.387a156.596 156.596 0 0 0 37.531-15.554l13.687 13.687a9.994 9.994 0 0 0 14.145-.004l44.195-44.226c3.903-3.907 3.903-10.239 0-14.141l-13.672-13.672a156.596 156.596 0 0 0 15.555-37.531h19.313c5.523 0 10-4.477 10-10v-62.527c0-5.524-4.477-10-10-10h-19.317a156.623 156.623 0 0 0-15.55-37.528l13.597-13.597a10.009 10.009 0 0 0 2.93-7.075 10.029 10.029 0 0 0-2.934-7.074l-44.23-44.195c-3.903-3.903-10.235-3.903-14.14.004l-13.579 13.582a156.596 156.596 0 0 0-37.531-15.555V84c0-5.523-4.477-10-10-10h-62.528c-5.52 0-10 4.477-10 10v19.21a156.464 156.464 0 0 0-37.527 15.552l-13.582-13.582c-3.902-3.903-10.234-3.907-14.14-.004l-44.227 44.199a9.987 9.987 0 0 0-2.934 7.07c0 2.653 1.055 5.2 2.93 7.075l13.598 13.597a156.568 156.568 0 0 0-15.555 37.528H84.02c-5.524 0-10 4.476-10 9.996l-.036 62.527c-.004 2.652 1.051 5.2 2.926 7.074s4.418 2.93 7.074 2.93h19.313a156.596 156.596 0 0 0 15.555 37.531l-13.672 13.672c-3.903 3.902-3.907 10.234 0 14.14l44.195 44.227a10.003 10.003 0 0 0 7.07 2.934h.004a10 10 0 0 0 7.07-2.93l13.684-13.687a156.728 156.728 0 0 0 37.531 15.554zm-33.609-55.973a10.003 10.003 0 0 0-12.5 1.328l-12.176 12.176-30.058-30.082 12.164-12.168a9.997 9.997 0 0 0 1.328-12.496c-9.067-14.031-15.442-29.41-18.942-45.715a10.003 10.003 0 0 0-9.777-7.898H93.988l.024-42.527h17.152a9.999 9.999 0 0 0 9.777-7.899c3.5-16.3 9.875-31.68 18.942-45.71a9.997 9.997 0 0 0-1.328-12.497l-12.086-12.09 30.082-30.058 12.074 12.078a10.007 10.007 0 0 0 12.5 1.328 136.809 136.809 0 0 1 45.71-18.942 10.006 10.006 0 0 0 7.9-9.777V94h42.527v17.074a9.996 9.996 0 0 0 7.898 9.778 136.936 136.936 0 0 1 45.711 18.941 9.992 9.992 0 0 0 12.496-1.328l12.078-12.074 30.082 30.058-12.086 12.086a9.998 9.998 0 0 0-1.328 12.5 136.97 136.97 0 0 1 18.942 45.711 9.996 9.996 0 0 0 9.777 7.899h17.184v42.527h-17.184a10.003 10.003 0 0 0-9.777 7.898 136.855 136.855 0 0 1-18.942 45.711 10.002 10.002 0 0 0 1.328 12.5l12.164 12.164-30.058 30.082-12.176-12.172a9.998 9.998 0 0 0-12.5-1.328 136.97 136.97 0 0 1-45.71 18.942 9.999 9.999 0 0 0-7.9 9.777V418h-42.527v-17.254c0-4.71-3.293-8.785-7.898-9.777-16.3-3.5-31.68-9.875-45.711-18.942zm0 0"/><path d="M338.629 256c0-45.563-37.067-82.629-82.629-82.629S173.371 210.437 173.371 256s37.066 82.629 82.629 82.629 82.629-37.066 82.629-82.629zm-145.258 0c0-34.535 28.094-62.629 62.629-62.629S318.629 221.47 318.629 256 290.535 318.629 256 318.629 193.371 290.535 193.371 256zM348.078 37.82c2.633 0 5.211-1.07 7.07-2.93a10.121 10.121 0 0 0 2.93-7.081c0-2.618-1.066-5.2-2.93-7.07a10.073 10.073 0 0 0-7.07-2.93 10.05 10.05 0 0 0-7.066 2.93 10.087 10.087 0 0 0-2.934 7.07c0 2.64 1.07 5.21 2.934 7.082a10.05 10.05 0 0 0 7.066 2.93zM164.36 474.36a10.08 10.08 0 0 0-7.07 2.93 10.08 10.08 0 0 0-2.93 7.07c0 2.64 1.07 5.21 2.93 7.07 1.858 1.86 4.44 2.93 7.07 2.93s5.21-1.07 7.07-2.93c1.86-1.86 2.93-4.442 2.93-7.07s-1.07-5.212-2.93-7.07a10.08 10.08 0 0 0-7.07-2.93zm0 0"/></svg>