<svg xmlns="http://www.w3.org/2000/svg" width="640" height="640" viewBox="-16 0 480 480"><path d="M448 240c-.098-55.613-40.96-102.746-96-110.719V56c0-13.254-10.746-24-24-24h-72V16c0-8.836-7.164-16-16-16H112c-8.836 0-16 7.164-16 16v16H24C10.746 32 0 42.746 0 56v360c0 13.254 10.746 24 24 24h280v8c0 17.672 14.328 32 32 32s32-14.328 32-32v-80a8 8 0 0 0-8-8v-10.656c51.336-11.317 87.922-56.774 88-109.344zm-16 0c0 53.02-42.98 96-96 96s-96-42.98-96-96 42.98-96 96-96c52.996.059 95.941 43.004 96 96zM328 48a8 8 0 0 1 8 8v72c-5.355.04-10.703.469-16 1.281V80c0-8.836-7.164-16-16-16h-48V48zM112 16h128v80H112zm128 96c8.836 0 16-7.164 16-16V80h48v52.719c-48.938 14.558-81.82 60.39-79.934 111.414 1.883 51.02 38.055 94.3 87.934 105.21V360a8 8 0 0 0-8 8v24H48V80h48v16c0 8.836 7.164 16 16 16zM24 424a8 8 0 0 1-8-8V56a8 8 0 0 1 8-8h72v16H48c-8.836 0-16 7.164-16 16v312c0 8.836 7.164 16 16 16h256v16zm328 24c0 8.836-7.164 16-16 16s-16-7.164-16-16v-72h32zm-8-88h-16v-8.406c2.656.191 5.297.406 8 .406s5.344-.215 8-.406zm0 0"/><path d="M256 240c.047 44.164 35.836 79.953 80 80v-16c-35.348 0-64-28.652-64-64s28.652-64 64-64v-16c-44.164.047-79.953 35.836-80 80zM80 160v64a8 8 0 0 0 8 8h64a8 8 0 0 0 8-8v-58.398l14.07-16.426-12.14-10.399L150.61 152H88a8 8 0 0 0-8 8zm16 8h40.895l-17.352 20.23-9.887-9.886-11.312 11.312 16 16A8.001 8.001 0 0 0 120 208h.313a8.002 8.002 0 0 0 5.757-2.793L144 184.289V216H96zm0 0"/></svg>