<svg xmlns="http://www.w3.org/2000/svg" xml:space="preserve" style="enable-background:new 0 0 470.204 470.204" viewBox="0 0 470.204 470.204"><path d="M194.873 206.89c56.842 0 102.922-46.08 102.922-102.922S251.716 1.045 194.873 1.045c-56.843 0-102.922 46.08-102.922 102.922 0 56.843 46.08 102.923 102.922 102.923zm0-184.947c45.301 0 82.024 36.724 82.024 82.024 0 45.301-36.724 82.024-82.024 82.024-45.301 0-82.024-36.724-82.024-82.024 0-45.301 36.724-82.024 82.024-82.024zM360.49 305.11c-30.008.001-54.334 24.329-54.332 54.337.001 30.008 24.329 54.333 54.337 54.332 30.008-.001 54.334-24.329 54.332-54.337 0-.173-.001-.347-.003-.52-.286-29.804-24.529-53.813-54.334-53.812zm0 87.249c-18.467 0-33.437-14.97-33.437-33.437s14.97-33.437 33.437-33.437 33.437 14.97 33.437 33.437-14.971 33.437-33.437 33.437z"/><path d="M456.62 366.759a78.914 78.914 0 0 0-.522-19.331l13.061-12.539-17.241-39.706-18.286 1.045a166.619 166.619 0 0 0-13.584-13.584v-17.763l-40.751-15.673-12.016 13.584a67.399 67.399 0 0 0-17.763.522 149.423 149.423 0 0 0-77.322-45.976 12.016 12.016 0 0 0-8.359 1.567c-41.513 29.258-96.936 29.258-138.449 0a10.97 10.97 0 0 0-8.359-1.567C48.798 234.062.609 294.944 0 365.192v15.673a10.971 10.971 0 0 0 10.449 10.971h245.029l13.584 31.869 18.286-1.567a106.544 106.544 0 0 0 13.584 13.061v18.286l40.751 15.673 12.016-13.584c6.447.341 12.911.166 19.331-.522l12.016 13.061 40.229-17.763-2.09-17.763a86.721 86.721 0 0 0 13.584-14.106h17.763l15.673-40.751-13.585-10.971zm-190.171-66.873-15.673 40.751 13.584 11.494a119.054 119.054 0 0 0 0 19.331H20.898v-6.269c.631-58.693 39.739-109.941 96.069-126.113a142.088 142.088 0 0 0 77.907 23.19 140.52 140.52 0 0 0 77.872-23.502 127.996 127.996 0 0 1 42.291 20.89l-18.808 8.359 1.567 17.763a86.721 86.721 0 0 0-13.584 14.106h-17.763zm173.975 97.698h-14.629l-3.135 5.224a83.565 83.565 0 0 1-16.196 17.241l-4.702 3.135 1.045 14.629-13.061 5.747-9.927-10.449-5.747 1.045a74.188 74.188 0 0 1-24.033.522h-5.747l-9.404 10.449-13.061-5.224v-15.151l-4.702-3.135a75.248 75.248 0 0 1-17.241-16.718l-3.657-4.702-14.106 1.045-5.224-13.061 10.449-9.927-1.045-5.224a77.858 77.858 0 0 1-1.045-24.555l1.045-5.224-10.971-9.404 5.224-13.061h14.629l3.135-4.702a63.75 63.75 0 0 1 16.196-17.241l4.702-3.135-1.045-14.629 13.061-5.747 9.927 10.449 5.747-1.045a73.66 73.66 0 0 1 24.033-.522h5.747l8.882-10.449 13.584 4.702v14.629l4.702 3.135a65.806 65.806 0 0 1 16.718 17.241l3.657 4.18 14.106-1.045 5.747 13.061-10.449 10.449 1.045 5.224a74.213 74.213 0 0 1 1.045 24.033l-1.045 5.747 10.971 9.404-5.225 13.059z"/></svg>