<?xml version="1.0" encoding="iso-8859-1"?>
<!-- Generator: Adobe Illustrator 19.0.0, SVG Export Plug-In . SVG Version: 6.00 Build 0)  -->
<svg version="1.1" id="Capa_1" xmlns="http://www.w3.org/2000/svg" xmlns:xlink="http://www.w3.org/1999/xlink" x="0px" y="0px"
	 viewBox="0 0 470.204 470.204" style="enable-background:new 0 0 470.204 470.204;" xml:space="preserve">
<g>
	<g>
		<g>
			<path d="M194.873,206.89c56.842,0,102.922-46.08,102.922-102.922S251.716,1.045,194.873,1.045
				c-56.843,0-102.922,46.08-102.922,102.922C91.951,160.81,138.031,206.89,194.873,206.89z M194.873,21.943
				c45.301,0,82.024,36.724,82.024,82.024c0,45.301-36.724,82.024-82.024,82.024c-45.301,0-82.024-36.724-82.024-82.024
				C112.849,58.666,149.573,21.943,194.873,21.943z"/>
			<path d="M360.49,305.11c-30.008,0.001-54.334,24.329-54.332,54.337c0.001,30.008,24.329,54.333,54.337,54.332
				c30.008-0.001,54.334-24.329,54.332-54.337c0-0.173-0.001-0.347-0.003-0.52C414.538,329.118,390.295,305.109,360.49,305.11z
				 M360.49,392.359c-18.467,0-33.437-14.97-33.437-33.437s14.97-33.437,33.437-33.437s33.437,14.97,33.437,33.437
				S378.956,392.359,360.49,392.359z"/>
			<path d="M456.62,366.759c0.619-6.441,0.444-12.933-0.522-19.331l13.061-12.539l-17.241-39.706l-18.286,1.045
				c-4.263-4.785-8.798-9.321-13.584-13.584v-17.763l-40.751-15.673l-12.016,13.584c-5.918-0.611-11.891-0.435-17.763,0.522
				c-20.439-22.904-47.437-38.957-77.322-45.976c-2.884-0.514-5.857,0.043-8.359,1.567c-41.513,29.258-96.936,29.258-138.449,0
				c-2.462-1.625-5.475-2.19-8.359-1.567C48.798,234.062,0.609,294.944,0,365.192v15.673c-0.007,5.861,4.595,10.692,10.449,10.971
				h245.029l13.584,31.869l18.286-1.567c4.133,4.746,8.679,9.117,13.584,13.061v18.286l40.751,15.673l12.016-13.584
				c6.447,0.341,12.911,0.166,19.331-0.522l12.016,13.061l40.229-17.763l-2.09-17.763c5.046-4.174,9.603-8.906,13.584-14.106h17.763
				l15.673-40.751L456.62,366.759z M266.449,299.886l-15.673,40.751l13.584,11.494c-0.524,6.433-0.524,12.898,0,19.331H20.898
				v-6.269c0.631-58.693,39.739-109.941,96.069-126.113c23.134,15.13,50.202,23.217,77.907,23.19
				c27.736,0.021,54.817-8.183,77.872-23.502c15.269,4.283,29.61,11.367,42.291,20.89l-18.808,8.359l1.567,17.763
				c-5.046,4.174-9.603,8.906-13.584,14.106H266.449z M440.424,397.584h-14.629l-3.135,5.224
				c-4.554,6.486-10.007,12.291-16.196,17.241l-4.702,3.135l1.045,14.629l-13.061,5.747l-9.927-10.449l-5.747,1.045
				c-7.929,1.479-16.047,1.656-24.033,0.522h-5.747l-9.404,10.449l-13.061-5.224v-15.151l-4.702-3.135
				c-6.605-4.614-12.426-10.258-17.241-16.718l-3.657-4.702l-14.106,1.045l-5.224-13.061l10.449-9.927l-1.045-5.224
				c-1.646-8.078-1.999-16.366-1.045-24.555l1.045-5.224l-10.971-9.404l5.224-13.061h14.629l3.135-4.702
				c4.276-6.707,9.769-12.555,16.196-17.241l4.702-3.135l-1.045-14.629l13.061-5.747l9.927,10.449l5.747-1.045
				c7.928-1.489,16.047-1.665,24.033-0.522h5.747l8.882-10.449l13.584,4.702v14.629l4.702,3.135
				c6.583,4.673,12.25,10.517,16.718,17.241l3.657,4.18l14.106-1.045l5.747,13.061l-10.449,10.449l1.045,5.224
				c1.653,7.901,2.006,16.018,1.045,24.033l-1.045,5.747l10.971,9.404L440.424,397.584z"/>
		</g>
	</g>
</g>
<g>
</g>
<g>
</g>
<g>
</g>
<g>
</g>
<g>
</g>
<g>
</g>
<g>
</g>
<g>
</g>
<g>
</g>
<g>
</g>
<g>
</g>
<g>
</g>
<g>
</g>
<g>
</g>
<g>
</g>
</svg>
