<svg xmlns="http://www.w3.org/2000/svg" viewBox="0 0 1145.3 1146"><defs><style>.cls-1{opacity:0.53;}.cls-2{fill:none;stroke:#5e48ff;stroke-miterlimit:10;stroke-width:0.69px;}</style></defs><g id="Layer_2" data-name="Layer 2"><g id="Layer_1-2" data-name="Layer 1"><g class="cls-1"><circle class="cls-2" cx="572.3" cy="262.6" r="262.2" transform="translate(-18 481.6) rotate(-45)"/><circle class="cls-2" cx="518.4" cy="267.3" r="262.2" transform="translate(-37.2 444.9) rotate(-45)"/><circle class="cls-2" cx="466.1" cy="281.3" r="262.2" transform="translate(-62.4 412) rotate(-45)"/><circle class="cls-2" cx="417.1" cy="304.2" r="262.2" transform="translate(-92.9 384) rotate(-45)"/><path class="cls-2" d="M573.7,166.6c93,111,78.6,276.4-32.4,369.5S265,614.7,171.9,503.8,93.3,227.4,204.2,134.3,480.6,55.7,573.7,166.6Z"/><path class="cls-2" d="M503.1,172.6C614,265.7,628.5,431.1,535.4,542S276.9,667.4,166,574.3,40.5,315.9,133.6,204.9,392.1,79.5,503.1,172.6Z"/><path class="cls-2" d="M434.6,190.7C560,263.1,603,423.5,530.6,548.9s-232.8,168.4-358.2,96S4,412.1,76.4,286.7,309.2,118.3,434.6,190.7Z"/><path class="cls-2" d="M370.3,220.4C506.4,270,576.6,420.4,527,556.5S327,762.8,190.9,713.3-15.3,513.2,34.2,377.2,234.2,170.9,370.3,220.4Z"/><path class="cls-2" d="M312.1,260.9C454.8,286,550,422,524.8,564.6S363.7,802.5,221.1,777.4-16.8,616.2,8.4,473.6,169.5,235.7,312.1,260.9Z"/><path class="cls-2" d="M261.9,310.8c144.8,0,262.2,117.4,262.2,262.2S406.7,835.2,261.9,835.2-.3,717.8-.3,573,117.1,310.8,261.9,310.8Z"/><path class="cls-2" d="M221.1,368.7c142.6-25.2,278.6,70.1,303.7,212.7S454.8,860,312.1,885.2,33.5,815.1,8.4,672.5,78.4,393.8,221.1,368.7Z"/><path class="cls-2" d="M190.9,432.8C327,383.2,477.5,453.4,527,589.5S506.4,876.1,370.3,925.6,83.7,905,34.2,768.9,54.8,482.3,190.9,432.8Z"/><path class="cls-2" d="M172.4,501.1c125.4-72.4,285.8-29.4,358.2,96s29.4,285.8-96,358.2S148.8,984.8,76.4,859.4,46.9,573.5,172.4,501.1Z"/><path class="cls-2" d="M166,571.7c110.9-93.1,276.3-78.6,369.4,32.3S614,880.4,503.1,973.4s-276.4,78.7-369.5-32.3S55,664.8,166,571.7Z"/><path class="cls-2" d="M171.9,642.3C265,531.3,430.4,516.9,541.3,610s125.4,258.4,32.4,369.4-258.5,125.4-369.5,32.3S78.8,753.2,171.9,642.3Z"/><path class="cls-2" d="M190,710.8c72.4-125.5,232.8-168.4,358.2-96s168.4,232.8,96,358.2S411.4,1141.4,286,1069,117.6,836.2,190,710.8Z"/><path class="cls-2" d="M219.7,775c49.6-136,200-206.2,336.1-156.7s206.3,200,156.8,336.1-200,206.3-336.1,156.7S170.2,911.1,219.7,775Z"/><path class="cls-2" d="M260.2,833.2c25.1-142.6,161.1-237.8,303.7-212.7S801.8,781.7,776.7,924.3,615.5,1162.1,472.9,1137,235,975.8,260.2,833.2Z"/><path class="cls-2" d="M310.1,883.5c0-144.9,117.4-262.3,262.2-262.3S834.6,738.6,834.6,883.5s-117.5,262.2-262.3,262.2S310.1,1028.3,310.1,883.5Z"/><path class="cls-2" d="M368,924.3c-25.2-142.6,70.1-278.6,212.7-303.8s278.6,70.1,303.8,212.7S814.4,1111.8,671.8,1137,393.1,1066.9,368,924.3Z"/><path class="cls-2" d="M432.1,954.4c-49.5-136.1,20.6-286.5,156.7-336.1S875.4,639,924.9,775.1s-20.6,286.5-156.7,336S481.6,1090.5,432.1,954.4Z"/><path class="cls-2" d="M500.4,973C428,847.6,471,687.2,596.4,614.8s285.8-29.5,358.2,96,29.5,285.7-95.9,358.2S572.9,1098.4,500.4,973Z"/><path class="cls-2" d="M571,979.4C477.9,868.4,492.4,703,603.3,610s276.4-78.7,369.5,32.3,78.6,276.3-32.4,369.4S664.1,1090.3,571,979.4Z"/><path class="cls-2" d="M641.6,973.4c-111-93-125.4-258.4-32.3-369.4s258.5-125.4,369.4-32.3,125.4,258.5,32.3,369.4S752.5,1066.5,641.6,973.4Z"/><path class="cls-2" d="M710.1,955.3c-125.5-72.4-168.4-232.8-96-358.2s232.8-168.4,358.2-96,168.4,232.8,96,358.2S835.5,1027.7,710.1,955.3Z"/><path class="cls-2" d="M774.4,925.6c-136.1-49.5-206.3-200-156.8-336.1s200-206.3,336.1-156.7,206.3,200,156.8,336.1S910.4,975.1,774.4,925.6Z"/><path class="cls-2" d="M832.5,885.2C689.9,860,594.7,724,619.8,581.4S781,343.5,923.6,368.7s237.8,161.1,212.7,303.8S975.1,910.3,832.5,885.2Z"/><path class="cls-2" d="M882.8,835.2c-144.9.1-262.3-117.4-262.3-262.2S737.9,310.8,882.8,310.8,1145,428.2,1145,573,1027.6,835.2,882.8,835.2Z"/><path class="cls-2" d="M923.6,777.4C781,802.5,645,707.3,619.8,564.6S689.9,286,832.5,260.9s278.6,70,303.8,212.7S1066.2,752.2,923.6,777.4Z"/><path class="cls-2" d="M953.7,713.3c-136.1,49.5-286.5-20.7-336.1-156.8S638.3,270,774.4,220.4s286.5,20.7,336.1,156.7S1089.8,663.7,953.7,713.3Z"/><path class="cls-2" d="M972.3,644.9c-125.4,72.4-285.8,29.4-358.2-96s-29.5-285.8,96-358.2,285.8-29.4,358.2,96S1097.7,572.5,972.3,644.9Z"/><path class="cls-2" d="M978.7,574.4C867.8,667.4,702.3,653,609.3,542s-78.7-276.3,32.3-369.4S917.9,94,1011,204.9,1089.6,481.3,978.7,574.4Z"/><path class="cls-2" d="M972.7,503.8c-93,110.9-258.4,125.4-369.4,32.3S477.9,277.6,571,166.6,829.5,41.2,940.4,134.3,1065.8,392.8,972.7,503.8Z"/><path class="cls-2" d="M954.6,435.3c-72.4,125.4-232.7,168.4-358.2,96S428,298.5,500.5,173,733.2,4.7,858.7,77.1,1027.1,309.9,954.6,435.3Z"/><path class="cls-2" d="M924.9,371c-49.5,136.1-200,206.2-336.1,156.7s-206.3-200-156.7-336.1S632.1-14.7,768.2,34.9,974.5,234.9,924.9,371Z"/><path class="cls-2" d="M884.5,312.8C859.3,455.5,723.3,550.7,580.7,525.5S342.8,364.4,368,221.8,529.1-16.1,671.8,9,909.6,170.2,884.5,312.8Z"/></g></g></g></svg>