<svg xmlns="http://www.w3.org/2000/svg" width="26" height="26" fill="none" viewBox="0 0 26 26"><g fill="#fff" clip-path="url(#a)"><path d="M19.178 17.361c.742-1.326.305-3.02-.976-3.783-1.282-.763-2.921-.306-3.663 1.02-.742 1.327-.305 3.021.976 3.784 1.282.763 2.922.306 3.663-1.02Zm-5.417-4.666c1.431-.38 2.29-1.892 1.92-3.377-.37-1.486-1.831-2.38-3.262-2-1.43.38-2.29 1.892-1.92 3.377.371 1.486 1.832 2.38 3.262 2Zm-2.078 1.957a2.717 2.717 0 0 0-1.252-1.195 2.59 2.59 0 0 0-1.693-.172 2.666 2.666 0 0 0-1.45.92 2.862 2.862 0 0 0-.17 3.341c.324.501.799.878 1.348 1.075.55.196 1.148.2 1.7.014a2.692 2.692 0 0 0 1.366-1.05l.514.794a.855.855 0 0 0 .535.373.82.82 0 0 0 .634-.13.894.894 0 0 0 .36-.899.878.878 0 0 0-.127-.316l-1.768-2.754.003-.001Zm-1.364 1.34c0 .24-.081.472-.23.656a.953.953 0 0 1-1.244.227c-.2-.12-.353-.31-.432-.535a1.053 1.053 0 0 1 .002-.698c.08-.226.233-.415.435-.534a.95.95 0 0 1 .663-.117.97.97 0 0 1 .58.352l.112.175c.075.146.115.309.115.474h-.001Z"/><path d="M13.1 26C6.207 26 .6 20.169.6 13 .6 5.833 6.207 0 13.1 0c6.894 0 12.5 5.832 12.5 13 0 7.17-5.606 13.001-12.5 13.001V26Zm0-24.069c-5.868 0-10.643 4.966-10.643 11.07 0 6.103 4.774 11.069 10.643 11.069 5.87 0 10.644-4.966 10.644-11.07 0-6.103-4.775-11.069-10.644-11.069Z"/></g><defs><clipPath id="a"><path fill="#fff" d="M.6 0h25v26H.6z"/></clipPath></defs></svg>