<svg xmlns="http://www.w3.org/2000/svg" viewBox="0 0 1145.3 1146"><defs><style>.cls-2{fill:none;stroke:#08ffe1;stroke-miterlimit:10;stroke-width:.69px}</style></defs><g id="Layer_2" data-name="Layer 2"><g id="Layer_1-2" data-name="Layer 1" style="opacity:.23"><circle cx="572.3" cy="262.6" r="262.2" class="cls-2" transform="rotate(-45 572.343 262.528)"/><circle cx="518.4" cy="267.3" r="262.2" class="cls-2" transform="rotate(-45 518.442 267.354)"/><circle cx="466.1" cy="281.3" r="262.2" class="cls-2" transform="rotate(-45 466.128 281.323)"/><circle cx="417.1" cy="304.2" r="262.2" class="cls-2" transform="rotate(-45 417.079 304.14)"/><path d="M573.7 166.6c93 111 78.6 276.4-32.4 369.5S265 614.7 171.9 503.8s-78.6-276.4 32.3-369.5 276.4-78.6 369.5 32.3Z" class="cls-2"/><path d="M503.1 172.6C614 265.7 628.5 431.1 535.4 542S276.9 667.4 166 574.3 40.5 315.9 133.6 204.9s258.5-125.4 369.5-32.3Z" class="cls-2"/><path d="M434.6 190.7c125.4 72.4 168.4 232.8 96 358.2s-232.8 168.4-358.2 96S4 412.1 76.4 286.7s232.8-168.4 358.2-96Z" class="cls-2"/><path d="M370.3 220.4C506.4 270 576.6 420.4 527 556.5S327 762.8 190.9 713.3-15.3 513.2 34.2 377.2s200-206.3 336.1-156.8Z" class="cls-2"/><path d="M312.1 260.9C454.8 286 550 422 524.8 564.6S363.7 802.5 221.1 777.4-16.8 616.2 8.4 473.6s161.1-237.9 303.7-212.7Z" class="cls-2"/><path d="M261.9 310.8c144.8 0 262.2 117.4 262.2 262.2S406.7 835.2 261.9 835.2-.3 717.8-.3 573s117.4-262.2 262.2-262.2Z" class="cls-2"/><path d="M221.1 368.7c142.6-25.2 278.6 70.1 303.7 212.7s-70 278.6-212.7 303.8S33.5 815.1 8.4 672.5s70-278.7 212.7-303.8Z" class="cls-2"/><path d="M190.9 432.8C327 383.2 477.5 453.4 527 589.5s-20.6 286.6-156.7 336.1S83.7 905 34.2 768.9s20.6-286.6 156.7-336.1Z" class="cls-2"/><path d="M172.4 501.1c125.4-72.4 285.8-29.4 358.2 96s29.4 285.8-96 358.2-285.8 29.5-358.2-95.9-29.5-285.9 96-358.3Z" class="cls-2"/><path d="M166 571.7c110.9-93.1 276.3-78.6 369.4 32.3s78.6 276.4-32.3 369.4-276.4 78.7-369.5-32.3S55 664.8 166 571.7Z" class="cls-2"/><path d="M171.9 642.3c93.1-111 258.5-125.4 369.4-32.3s125.4 258.4 32.4 369.4-258.5 125.4-369.5 32.3-125.4-258.5-32.3-369.4Z" class="cls-2"/><path d="M190 710.8c72.4-125.5 232.8-168.4 358.2-96s168.4 232.8 96 358.2-232.8 168.4-358.2 96-168.4-232.8-96-358.2Z" class="cls-2"/><path d="M219.7 775c49.6-136 200-206.2 336.1-156.7s206.3 200 156.8 336.1-200 206.3-336.1 156.7-206.3-200-156.8-336.1Z" class="cls-2"/><path d="M260.2 833.2c25.1-142.6 161.1-237.8 303.7-212.7s237.9 161.2 212.8 303.8-161.2 237.8-303.8 212.7S235 975.8 260.2 833.2Z" class="cls-2"/><path d="M310.1 883.5c0-144.9 117.4-262.3 262.2-262.3s262.3 117.4 262.3 262.3-117.5 262.2-262.3 262.2-262.2-117.4-262.2-262.2Z" class="cls-2"/><path d="M368 924.3c-25.2-142.6 70.1-278.6 212.7-303.8s278.6 70.1 303.8 212.7-70.1 278.6-212.7 303.8-278.7-70.1-303.8-212.7Z" class="cls-2"/><path d="M432.1 954.4c-49.5-136.1 20.6-286.5 156.7-336.1S875.4 639 924.9 775.1s-20.6 286.5-156.7 336-286.6-20.6-336.1-156.7Z" class="cls-2"/><path d="M500.4 973c-72.4-125.4-29.4-285.8 96-358.2s285.8-29.5 358.2 96 29.5 285.7-95.9 358.2-285.8 29.4-358.3-96Z" class="cls-2"/><path d="M571 979.4c-93.1-111-78.6-276.4 32.3-369.4s276.4-78.7 369.5 32.3 78.6 276.3-32.4 369.4-276.3 78.6-369.4-32.3Z" class="cls-2"/><path d="M641.6 973.4c-111-93-125.4-258.4-32.3-369.4s258.5-125.4 369.4-32.3 125.4 258.5 32.3 369.4-258.5 125.4-369.4 32.3Z" class="cls-2"/><path d="M710.1 955.3c-125.5-72.4-168.4-232.8-96-358.2s232.8-168.4 358.2-96 168.4 232.8 96 358.2-232.8 168.4-358.2 96Z" class="cls-2"/><path d="M774.4 925.6c-136.1-49.5-206.3-200-156.8-336.1s200-206.3 336.1-156.7 206.3 200 156.8 336.1-200.1 206.2-336.1 156.7Z" class="cls-2"/><path d="M832.5 885.2C689.9 860 594.7 724 619.8 581.4S781 343.5 923.6 368.7s237.8 161.1 212.7 303.8-161.2 237.8-303.8 212.7Z" class="cls-2"/><path d="M882.8 835.2c-144.9.1-262.3-117.4-262.3-262.2s117.4-262.2 262.3-262.2S1145 428.2 1145 573s-117.4 262.2-262.2 262.2Z" class="cls-2"/><path d="M923.6 777.4C781 802.5 645 707.3 619.8 564.6S689.9 286 832.5 260.9s278.6 70 303.8 212.7-70.1 278.6-212.7 303.8Z" class="cls-2"/><path d="M953.7 713.3c-136.1 49.5-286.5-20.7-336.1-156.8S638.3 270 774.4 220.4s286.5 20.7 336.1 156.7-20.7 286.6-156.8 336.2Z" class="cls-2"/><path d="M972.3 644.9c-125.4 72.4-285.8 29.4-358.2-96s-29.5-285.8 96-358.2 285.8-29.4 358.2 96 29.4 285.8-96 358.2Z" class="cls-2"/><path d="M978.7 574.4c-110.9 93-276.4 78.6-369.4-32.4s-78.7-276.3 32.3-369.4S917.9 94 1011 204.9s78.6 276.4-32.3 369.5Z" class="cls-2"/><path d="M972.7 503.8c-93 110.9-258.4 125.4-369.4 32.3S477.9 277.6 571 166.6s258.5-125.4 369.4-32.3 125.4 258.5 32.3 369.5Z" class="cls-2"/><path d="M954.6 435.3c-72.4 125.4-232.7 168.4-358.2 96S428 298.5 500.5 173 733.2 4.7 858.7 77.1s168.4 232.8 95.9 358.2Z" class="cls-2"/><path d="M924.9 371c-49.5 136.1-200 206.2-336.1 156.7s-206.3-200-156.7-336.1 200-206.3 336.1-156.7 206.3 200 156.7 336.1Z" class="cls-2"/><path d="M884.5 312.8c-25.2 142.7-161.2 237.9-303.8 212.7S342.8 364.4 368 221.8 529.1-16.1 671.8 9s237.8 161.2 212.7 303.8Z" class="cls-2"/></g></g></svg>