<svg xmlns="http://www.w3.org/2000/svg" viewBox="0 0 804.8 304.1"><defs><style>.cls-1{fill:none;stroke:#036358;}.cls-1,.cls-2,.cls-3{stroke-miterlimit:10;stroke-width:2px;}.cls-2,.cls-3{fill:#01051e;}.cls-2{stroke:#05a692;}.cls-3{stroke:#08ffe1;}</style></defs><g id="Layer_2" data-name="Layer 2"><g id="Layer_1-2" data-name="Layer 1"><path class="cls-1" d="M74.7,95.6a25.9,25.9,0,0,1-3.4,13.6,27.1,27.1,0,0,1-8.7,8.8,37.8,37.8,0,0,1-11.5,4.8,56.6,56.6,0,0,1-11.9,1.4,71,71,0,0,1-20.4-3,52.6,52.6,0,0,1-17.3-8.4L18.7,92.7a29.9,29.9,0,0,0,8.7,5.5,26.1,26.1,0,0,0,9.5,2,8.4,8.4,0,0,0,3.5-.7A2.5,2.5,0,0,0,42,97c0-1.3-1-2.4-2.9-3.1A75.8,75.8,0,0,0,29.3,91a47.6,47.6,0,0,1-7.8-2.6,29.4,29.4,0,0,1-7.3-4.7,22.7,22.7,0,0,1-5.4-7.1,22,22,0,0,1-2.1-10,24.6,24.6,0,0,1,3.4-13.3,28.8,28.8,0,0,1,8.7-9,38.2,38.2,0,0,1,11.5-5A45,45,0,0,1,42,37.7a65.2,65.2,0,0,1,18.5,2.7A62.5,62.5,0,0,1,77,48.1L60.5,67.8A40,40,0,0,0,52.7,64a24.7,24.7,0,0,0-7.8-1.4,10.4,10.4,0,0,0-4.3.7A2.7,2.7,0,0,0,38.9,66a2.5,2.5,0,0,0,1.9,2.3,57.2,57.2,0,0,0,8.8,2.3,44.2,44.2,0,0,1,9.2,2.8,30.6,30.6,0,0,1,8,4.9,23.9,23.9,0,0,1,5.8,7.2A23.1,23.1,0,0,1,74.7,95.6Z"/><path class="cls-1" d="M125.4,123.3c-10.8,0-18.8-2.3-24-7s-7.8-11.8-7.8-21.6V66H82.3V40.7H93.5v-18h34.2v18h17.5V66H127.7V87.4c0,3.9.9,6.5,2.6,7.8a10.3,10.3,0,0,0,6.9,2.1l3.5-.3,2.9-.6v24.2a31.8,31.8,0,0,1-7.7,1.9A69.9,69.9,0,0,1,125.4,123.3Z"/><path class="cls-1" d="M200.5,70.1c0-2.4-.8-4.3-2.5-5.4a11.3,11.3,0,0,0-6.7-1.8,21,21,0,0,0-9.2,2.1,38.8,38.8,0,0,0-7.7,4.8L156.8,52.4a51.9,51.9,0,0,1,17.4-10.9A59.4,59.4,0,0,1,195,37.7c7.6,0,14,1.1,19,3.2a28.9,28.9,0,0,1,11.8,8.9,33.7,33.7,0,0,1,6.1,13.1,67.9,67.9,0,0,1,1.8,15.9v42.4h-32v-6.5h-.3a16.2,16.2,0,0,1-8.7,6.6,33.7,33.7,0,0,1-11,2,36.7,36.7,0,0,1-9.7-1.4,27,27,0,0,1-9-4.4,24.1,24.1,0,0,1-6.7-8,25.4,25.4,0,0,1-2.6-12c0-5.6,1.5-10.2,4.4-13.7a30,30,0,0,1,11.1-8.3,52.4,52.4,0,0,1,15-4,131.3,131.3,0,0,1,16.3-1.1Zm.3,17.7a38.4,38.4,0,0,0-12.5,1.7q-4.8,1.6-4.8,6.3a5.1,5.1,0,0,0,.8,2.8,6.1,6.1,0,0,0,2,1.9,11.1,11.1,0,0,0,2.7,1.2,12.7,12.7,0,0,0,2.6.4,10.4,10.4,0,0,0,8.1-3.3,11,11,0,0,0,3.1-8.2V87.8Z"/><path class="cls-1" d="M286.6,86.2v35H251.3V5.6h35.3V71.5h.4l19.1-30.8h41L321.1,77,347,121.2H305.8L287,86.2Z"/><path class="cls-1" d="M437.9,81.7c0,1.3,0,2.7-.1,4.1a31.1,31.1,0,0,1-.2,3.4H383.5a7.3,7.3,0,0,0,1.4,3.8,11.5,11.5,0,0,0,3.3,2.9,12.3,12.3,0,0,0,4.2,1.9,19.9,19.9,0,0,0,4.9.6,16.7,16.7,0,0,0,8.1-1.8,13.6,13.6,0,0,0,5-3.9l25.1,12.7A37.9,37.9,0,0,1,420,119.2a56.8,56.8,0,0,1-40.6,2.3,44.5,44.5,0,0,1-14.6-8.2,38.3,38.3,0,0,1-10.2-13.5A44.4,44.4,0,0,1,350.8,81a43.2,43.2,0,0,1,3.5-18,38.1,38.1,0,0,1,9.6-13.6,43.4,43.4,0,0,1,14.2-8.7,50.3,50.3,0,0,1,17.5-3A43.6,43.6,0,0,1,412.8,41a38.2,38.2,0,0,1,13.4,9.2,42,42,0,0,1,8.7,13.9A50.4,50.4,0,0,1,437.9,81.7ZM407.5,70.3a9,9,0,0,0-3.1-7.1,12.7,12.7,0,0,0-8.5-2.7c-3.9,0-6.9,1-9,3.2a11.1,11.1,0,0,0-3.7,6.6Z"/><path class="cls-1" d="M526.7,16.5a59.8,59.8,0,0,1,17.8,10.8L521.8,49.8a23.4,23.4,0,0,0-9-6.8,25.2,25.2,0,0,0-9.6-2.3,16,16,0,0,0-6.4,1.1,3.7,3.7,0,0,0-2.5,3.7,3.9,3.9,0,0,0,2.6,3.6c1.6.7,4.4,1.7,8.1,3s8,2.6,12.3,4.2a50.8,50.8,0,0,1,11.8,6.1,33.2,33.2,0,0,1,9,9.3,25.6,25.6,0,0,1,3.5,13.7,36,36,0,0,1-3.1,15.1,34.3,34.3,0,0,1-8.1,11.3,37,37,0,0,1-11.7,7.2,46.3,46.3,0,0,1-13.8,3.2v11.7H489.3V122.4a66.6,66.6,0,0,1-20.7-4.9,64.4,64.4,0,0,1-17.2-10.3l22.1-23.5a34.6,34.6,0,0,0,4.5,3.8,36.4,36.4,0,0,0,5.8,3.3,33.8,33.8,0,0,0,6.3,2.3,25.2,25.2,0,0,0,6.7.9,14.7,14.7,0,0,0,5.6-1.1,3.9,3.9,0,0,0,2.5-3.8,3.7,3.7,0,0,0-.9-2.6,7.1,7.1,0,0,0-2.9-2.2c-1.5-.7-3.4-1.5-5.9-2.4l-9.4-3.1a75.8,75.8,0,0,1-10.6-4.3,36.6,36.6,0,0,1-8.9-6,26.7,26.7,0,0,1-6.2-8.6,29.5,29.5,0,0,1-2.3-12,35.8,35.8,0,0,1,2.7-14.3,33.2,33.2,0,0,1,7.4-10.5,34.9,34.9,0,0,1,10.6-7A50.1,50.1,0,0,1,491,12.3V1h15.6V12A66.3,66.3,0,0,1,526.7,16.5Z"/><path class="cls-1" d="M562.1,90.7,602.6,43H563.7V12.9h86.4V39.2L607,90.1h44.3v31.1H562.1Z"/><path class="cls-1" d="M671.2,12.9h36.7V121.2H671.2Z"/><path class="cls-1" d="M731.1,12.9h36.7V89.8h36v31.4H731.1Z"/><path class="cls-2" d="M74.8,179.9a26.1,26.1,0,0,1-3.4,13.6,28.1,28.1,0,0,1-8.7,8.8A37.7,37.7,0,0,1,51.2,207a51,51,0,0,1-11.9,1.5,71,71,0,0,1-20.4-3A52.8,52.8,0,0,1,1.6,197l17.2-20a31.9,31.9,0,0,0,8.7,5.4,24.4,24.4,0,0,0,9.5,2.1,10.4,10.4,0,0,0,3.5-.7,2.7,2.7,0,0,0,1.6-2.6c0-1.3-1-2.3-2.9-3.1a86.3,86.3,0,0,0-9.8-2.8,40.1,40.1,0,0,1-7.8-2.7,26.8,26.8,0,0,1-7.3-4.7,22.7,22.7,0,0,1-5.4-7.1,22,22,0,0,1-2.2-10,24.6,24.6,0,0,1,3.5-13.3,29.6,29.6,0,0,1,8.7-8.9,38.5,38.5,0,0,1,11.5-5.1,49.8,49.8,0,0,1,11.7-1.6,65.9,65.9,0,0,1,18.5,2.8,62.3,62.3,0,0,1,16.5,7.6L60.6,152a40,40,0,0,0-7.8-3.8,24.5,24.5,0,0,0-7.8-1.3,12.7,12.7,0,0,0-4.3.6,2.8,2.8,0,0,0-1.7,2.7c0,1,.6,1.8,1.9,2.4a61.7,61.7,0,0,0,8.8,2.2,51.2,51.2,0,0,1,9.2,2.8,30.6,30.6,0,0,1,8,4.9,21.6,21.6,0,0,1,5.7,7.3A21.2,21.2,0,0,1,74.8,179.9Z"/><path class="cls-2" d="M125.5,207.5q-16.2,0-24-6.9c-5.2-4.6-7.8-11.9-7.8-21.6V150.2H82.4V125H93.6V107h34.2v18h17.5v25.2H127.8v21.4c0,3.9.9,6.5,2.6,7.9s3.9,2.1,6.9,2.1a14.5,14.5,0,0,0,3.5-.4l2.9-.6v24.2a31.2,31.2,0,0,1-7.7,2A70.3,70.3,0,0,1,125.5,207.5Z"/><path class="cls-2" d="M200.6,154.3a6.1,6.1,0,0,0-2.5-5.4,11.3,11.3,0,0,0-6.7-1.7,20.9,20.9,0,0,0-9.2,2,38.8,38.8,0,0,0-7.7,4.8l-17.6-17.4a50.1,50.1,0,0,1,17.4-10.8,57.3,57.3,0,0,1,20.8-3.9c7.6,0,14,1.1,18.9,3.2a29.4,29.4,0,0,1,11.9,8.9,34.8,34.8,0,0,1,6.1,13.2,67.9,67.9,0,0,1,1.8,15.9v42.3h-32V199h-.3a17.3,17.3,0,0,1-8.7,6.6,33.5,33.5,0,0,1-11,1.9,36.5,36.5,0,0,1-9.7-1.3,25.4,25.4,0,0,1-9-4.5,23.5,23.5,0,0,1-6.7-7.9,26.1,26.1,0,0,1-2.6-12.1c0-5.6,1.5-10.2,4.4-13.7a29.8,29.8,0,0,1,11.1-8.2,52.4,52.4,0,0,1,15-4.1,131.3,131.3,0,0,1,16.3-1.1Zm.3,17.8c-5.2,0-9.4.5-12.5,1.7s-4.8,3.2-4.8,6.2a5.5,5.5,0,0,0,.8,2.9,7.3,7.3,0,0,0,2,1.9,8.1,8.1,0,0,0,2.7,1.1,8.2,8.2,0,0,0,2.6.4,10.7,10.7,0,0,0,8.1-3.2,11.4,11.4,0,0,0,3.1-8.3v-2.7Z"/><path class="cls-2" d="M286.7,170.4v35H251.3V89.8h35.4v65.9h.4L306.2,125h41l-26,36.2,25.9,44.2H305.9l-18.8-35Z"/><path class="cls-2" d="M438,166c0,1.3,0,2.6-.1,4a33.2,33.2,0,0,1-.2,3.5H383.6a7.3,7.3,0,0,0,1.4,3.8,13.2,13.2,0,0,0,3.3,2.9,14.4,14.4,0,0,0,4.2,1.8,19.7,19.7,0,0,0,4.8.6,18.1,18.1,0,0,0,8.2-1.7,16.1,16.1,0,0,0,5-3.9l25.1,12.7a37,37,0,0,1-15.5,13.7q-10.2,5.1-23.7,5.1a53.9,53.9,0,0,1-16.9-2.8,41.2,41.2,0,0,1-14.6-8.2A38.3,38.3,0,0,1,354.7,184c-2.6-5.4-3.8-11.7-3.8-18.8a43.8,43.8,0,0,1,3.5-18,40.1,40.1,0,0,1,9.5-13.6,43,43,0,0,1,14.3-8.6,49.9,49.9,0,0,1,17.5-3.1,43.6,43.6,0,0,1,17.2,3.3,39.5,39.5,0,0,1,13.4,9.2,42.5,42.5,0,0,1,8.7,14A50,50,0,0,1,438,166Zm-30.4-11.5a9,9,0,0,0-3.1-7c-2.1-1.9-5-2.8-8.5-2.8s-6.9,1.1-9,3.2a11.7,11.7,0,0,0-3.7,6.6Z"/><path class="cls-2" d="M526.8,100.8a61.6,61.6,0,0,1,17.8,10.7L521.9,134a23.2,23.2,0,0,0-9-6.7,25.2,25.2,0,0,0-9.6-2.3,14.4,14.4,0,0,0-6.4,1.1,3.6,3.6,0,0,0-2.5,3.6,3.8,3.8,0,0,0,2.5,3.6,79.2,79.2,0,0,0,8.2,3q5.8,1.8,12.3,4.2a54.9,54.9,0,0,1,11.8,6.1,31.6,31.6,0,0,1,8.9,9.3,25,25,0,0,1,3.6,13.7,36.5,36.5,0,0,1-3.1,15.2,35,35,0,0,1-8.1,11.2,39.1,39.1,0,0,1-11.7,7.3,49.6,49.6,0,0,1-13.8,3.2v11.6H489.4V206.6a63.9,63.9,0,0,1-20.7-4.9,61.7,61.7,0,0,1-17.2-10.2l22.1-23.6a35.1,35.1,0,0,0,4.5,3.9,46.1,46.1,0,0,0,5.8,3.3,42.9,42.9,0,0,0,6.3,2.3,30,30,0,0,0,6.7.8,14.7,14.7,0,0,0,5.6-1.1,4.2,4.2,0,0,0,1.6-6.4,8,8,0,0,0-2.9-2.1,47,47,0,0,0-5.9-2.4l-9.4-3.1a111.7,111.7,0,0,1-10.6-4.3,40.1,40.1,0,0,1-8.9-6.1,25.6,25.6,0,0,1-6.2-8.6,29,29,0,0,1-2.3-11.9,35.4,35.4,0,0,1,2.7-14.3,33.6,33.6,0,0,1,7.4-10.6,36.9,36.9,0,0,1,10.6-7,49.9,49.9,0,0,1,12.5-3.7V85.2h15.6v11A69.6,69.6,0,0,1,526.8,100.8Z"/><path class="cls-2" d="M562.1,175l40.6-47.7H563.8V97.2h86.4v26.3l-43.1,50.9h44.3v31H562.1Z"/><path class="cls-2" d="M671.3,97.2H708V205.4H671.3Z"/><path class="cls-2" d="M731.2,97.2h36.7v76.9h35.9v31.3H731.2Z"/><path class="cls-3" d="M74.8,264.9a26.1,26.1,0,0,1-3.4,13.6,28.1,28.1,0,0,1-8.7,8.8A37.7,37.7,0,0,1,51.2,292a51,51,0,0,1-11.9,1.5,71,71,0,0,1-20.4-3A52.8,52.8,0,0,1,1.6,282l17.2-20a31.9,31.9,0,0,0,8.7,5.4,24.4,24.4,0,0,0,9.5,2.1,10.4,10.4,0,0,0,3.5-.7,2.7,2.7,0,0,0,1.6-2.6c0-1.3-1-2.3-2.9-3.1a86.3,86.3,0,0,0-9.8-2.8,40.1,40.1,0,0,1-7.8-2.7,26.8,26.8,0,0,1-7.3-4.7,22.7,22.7,0,0,1-5.4-7.1,22,22,0,0,1-2.2-10,24.6,24.6,0,0,1,3.5-13.3,29.6,29.6,0,0,1,8.7-8.9,38.5,38.5,0,0,1,11.5-5.1,49.8,49.8,0,0,1,11.7-1.6,65.9,65.9,0,0,1,18.5,2.8,62.3,62.3,0,0,1,16.5,7.6L60.6,237a40,40,0,0,0-7.8-3.8,24.5,24.5,0,0,0-7.8-1.3,12.7,12.7,0,0,0-4.3.6,2.8,2.8,0,0,0-1.7,2.7c0,1,.6,1.8,1.9,2.4a61.7,61.7,0,0,0,8.8,2.2,51.2,51.2,0,0,1,9.2,2.8,30.6,30.6,0,0,1,8,4.9,21.6,21.6,0,0,1,5.7,7.3A21.2,21.2,0,0,1,74.8,264.9Z"/><path class="cls-3" d="M125.5,292.5q-16.2,0-24-6.9c-5.2-4.6-7.8-11.9-7.8-21.6V235.2H82.4V210H93.6V192h34.2v18h17.5v25.2H127.8v21.4c0,3.9.9,6.5,2.6,7.9s3.9,2.1,6.9,2.1a14.5,14.5,0,0,0,3.5-.4l2.9-.6v24.2a31.2,31.2,0,0,1-7.7,2A70.3,70.3,0,0,1,125.5,292.5Z"/><path class="cls-3" d="M200.6,239.3a6.1,6.1,0,0,0-2.5-5.4,11.3,11.3,0,0,0-6.7-1.7,20.9,20.9,0,0,0-9.2,2,38.8,38.8,0,0,0-7.7,4.8l-17.6-17.4a50.1,50.1,0,0,1,17.4-10.8,57.3,57.3,0,0,1,20.8-3.9c7.6,0,14,1.1,18.9,3.2a29.4,29.4,0,0,1,11.9,8.9,34.8,34.8,0,0,1,6.1,13.2,67.9,67.9,0,0,1,1.8,15.9v42.3h-32V284h-.3a17.3,17.3,0,0,1-8.7,6.6,33.5,33.5,0,0,1-11,1.9,36.5,36.5,0,0,1-9.7-1.3,25.4,25.4,0,0,1-9-4.5,23.5,23.5,0,0,1-6.7-7.9,26.1,26.1,0,0,1-2.6-12.1c0-5.6,1.5-10.2,4.4-13.7a29.8,29.8,0,0,1,11.1-8.2,52.4,52.4,0,0,1,15-4.1,131.3,131.3,0,0,1,16.3-1.1Zm.3,17.8c-5.2,0-9.4.5-12.5,1.7s-4.8,3.2-4.8,6.2a5.5,5.5,0,0,0,.8,2.9,7.3,7.3,0,0,0,2,1.9,8.1,8.1,0,0,0,2.7,1.1,8.2,8.2,0,0,0,2.6.4,10.7,10.7,0,0,0,8.1-3.2,11.4,11.4,0,0,0,3.1-8.3v-2.7Z"/><path class="cls-3" d="M286.7,255.4v35H251.3V174.8h35.4v65.9h.4L306.2,210h41l-26,36.2,25.9,44.2H305.9l-18.8-35Z"/><path class="cls-3" d="M438,251c0,1.3,0,2.6-.1,4a33.2,33.2,0,0,1-.2,3.5H383.6a7.3,7.3,0,0,0,1.4,3.8,13.2,13.2,0,0,0,3.3,2.9,14.4,14.4,0,0,0,4.2,1.8,19.7,19.7,0,0,0,4.8.6,18.1,18.1,0,0,0,8.2-1.7,16.1,16.1,0,0,0,5-3.9l25.1,12.7a37,37,0,0,1-15.5,13.7q-10.2,5.1-23.7,5.1a53.9,53.9,0,0,1-16.9-2.8,41.2,41.2,0,0,1-14.6-8.2A38.3,38.3,0,0,1,354.7,269c-2.6-5.4-3.8-11.7-3.8-18.8a43.8,43.8,0,0,1,3.5-18,40.1,40.1,0,0,1,9.5-13.6,43,43,0,0,1,14.3-8.6,49.9,49.9,0,0,1,17.5-3.1,43.6,43.6,0,0,1,17.2,3.3,39.5,39.5,0,0,1,13.4,9.2,42.5,42.5,0,0,1,8.7,14A50,50,0,0,1,438,251Zm-30.4-11.5a9,9,0,0,0-3.1-7c-2.1-1.9-5-2.8-8.5-2.8s-6.9,1.1-9,3.2a11.7,11.7,0,0,0-3.7,6.6Z"/><path class="cls-3" d="M526.8,185.8a61.6,61.6,0,0,1,17.8,10.7L521.9,219a23.2,23.2,0,0,0-9-6.7,25.2,25.2,0,0,0-9.6-2.3,14.4,14.4,0,0,0-6.4,1.1,3.6,3.6,0,0,0-2.5,3.6,3.8,3.8,0,0,0,2.5,3.6,79.2,79.2,0,0,0,8.2,3q5.8,1.8,12.3,4.2a54.9,54.9,0,0,1,11.8,6.1,31.6,31.6,0,0,1,8.9,9.3,25,25,0,0,1,3.6,13.7,36.5,36.5,0,0,1-3.1,15.2,35,35,0,0,1-8.1,11.2,39.1,39.1,0,0,1-11.7,7.3,49.6,49.6,0,0,1-13.8,3.2v11.6H489.4V291.6a63.9,63.9,0,0,1-20.7-4.9,61.7,61.7,0,0,1-17.2-10.2l22.1-23.6a35.1,35.1,0,0,0,4.5,3.9,46.1,46.1,0,0,0,5.8,3.3,42.9,42.9,0,0,0,6.3,2.3,30,30,0,0,0,6.7.8,14.7,14.7,0,0,0,5.6-1.1,4.2,4.2,0,0,0,1.6-6.4,8,8,0,0,0-2.9-2.1,47,47,0,0,0-5.9-2.4l-9.4-3.1a111.7,111.7,0,0,1-10.6-4.3,40.1,40.1,0,0,1-8.9-6.1,25.6,25.6,0,0,1-6.2-8.6,29,29,0,0,1-2.3-11.9,35.4,35.4,0,0,1,2.7-14.3,33.6,33.6,0,0,1,7.4-10.6,36.9,36.9,0,0,1,10.6-7,49.9,49.9,0,0,1,12.5-3.7V170.2h15.6v11A69.6,69.6,0,0,1,526.8,185.8Z"/><path class="cls-3" d="M562.1,260l40.6-47.7H563.8V182.2h86.4v26.3l-43.1,50.9h44.3v31H562.1Z"/><path class="cls-3" d="M671.3,182.2H708V290.4H671.3Z"/><path class="cls-3" d="M731.2,182.2h36.7v76.9h35.9v31.3H731.2Z"/></g></g></svg>